<svg xmlns="http://www.w3.org/2000/svg" xmlns:xlink="http://www.w3.org/1999/xlink" contentStyleType="text/css" data-diagram-type="CLASS" height="834px" preserveAspectRatio="none" style="width:1068px;height:834px;background:#0B1020;" version="1.1" viewBox="0 0 1068 834" width="1068px" zoomAndPan="magnify"><?plantuml 1.2026.4beta2?><defs/><g><rect fill="#0B1020" height="834" style="stroke:none;stroke-width:1;" width="1068" x="0" y="0"/><!--class PLAYER--><g class="entity" data-qualified-name="PLAYER" data-source-line="23" id="ent0002"><rect fill="#111827" height="72.5625" rx="2.5" ry="2.5" style="stroke:#60A5FA;stroke-width:0.5;" width="131.7861" x="33.92" y="433.44"/><text fill="#E5E7EB" font-family="DejaVu Sans" font-size="12" font-style="italic" lengthAdjust="spacing" textLength="45.0762" x="77.275" y="449.5787">&#171;table&#187;</text><text fill="#E5E7EB" font-family="DejaVu Sans" font-size="14" lengthAdjust="spacing" textLength="52.9443" x="73.3409" y="465.4039">PLAYER</text><line style="stroke:#60A5FA;stroke-width:0.5;" x1="34.92" x2="164.7061" y1="473.7056" y2="473.7056"/><g data-visibility-modifier="IE_MANDATORY"><ellipse cx="44.92" cy="487.3541" fill="#000000" rx="3" ry="3" style="stroke:#000000;stroke-width:1;"/></g><text fill="#E5E7EB" font-family="DejaVu Sans" font-size="14" lengthAdjust="spacing" textLength="105.7861" x="53.92" y="490.7007">id : string &#171;PK&#187;</text><line style="stroke:#60A5FA;stroke-width:0.5;" x1="34.92" x2="164.7061" y1="498.0025" y2="498.0025"/></g><!--class PF--><g class="entity" data-qualified-name="PF" data-source-line="26" id="ent0003"><rect fill="#111827" height="121.4531" rx="2.5" ry="2.5" style="stroke:#60A5FA;stroke-width:0.5;" width="161.6455" x="298.1" y="7"/><text fill="#E5E7EB" font-family="DejaVu Sans" font-size="12" font-style="italic" lengthAdjust="spacing" textLength="45.0762" x="356.3847" y="23.1387">&#171;table&#187;</text><text fill="#E5E7EB" font-family="DejaVu Sans" font-size="14" lengthAdjust="spacing" textLength="144.5732" x="306.6361" y="38.9639">PLAYER_FORMATION</text><line style="stroke:#60A5FA;stroke-width:0.5;" x1="299.1" x2="458.7455" y1="47.2656" y2="47.2656"/><g data-visibility-modifier="IE_MANDATORY"><ellipse cx="309.1" cy="60.9141" fill="#000000" rx="3" ry="3" style="stroke:#000000;stroke-width:1;"/></g><text fill="#E5E7EB" font-family="DejaVu Sans" font-size="14" lengthAdjust="spacing" textLength="105.7861" x="318.1" y="64.2607">id : string &#171;PK&#187;</text><line style="stroke:#60A5FA;stroke-width:1;" x1="299.1" x2="458.7455" y1="71.5625" y2="71.5625"/><text fill="#E5E7EB" font-family="DejaVu Sans" font-size="14" lengthAdjust="spacing" textLength="149.6455" x="304.1" y="88.5576">playerId : string &#171;FK&#187;</text><text fill="#E5E7EB" font-family="DejaVu Sans" font-size="14" lengthAdjust="spacing" textLength="93.5088" x="304.1" y="104.8545">name : string</text><text fill="#E5E7EB" font-family="DejaVu Sans" font-size="14" lengthAdjust="spacing" textLength="74.7715" x="304.1" y="121.1514">slots : json</text></g><!--class PQ--><g class="entity" data-qualified-name="PQ" data-source-line="33" id="ent0004"><rect fill="#111827" height="137.75" rx="2.5" ry="2.5" style="stroke:#60A5FA;stroke-width:0.5;" width="161.6455" x="595.08" y="97.85"/><text fill="#E5E7EB" font-family="DejaVu Sans" font-size="12" font-style="italic" lengthAdjust="spacing" textLength="45.0762" x="653.3647" y="113.9887">&#171;table&#187;</text><text fill="#E5E7EB" font-family="DejaVu Sans" font-size="14" lengthAdjust="spacing" textLength="107.4951" x="622.1552" y="129.8139">PLAYER_QUEST</text><line style="stroke:#60A5FA;stroke-width:0.5;" x1="596.08" x2="755.7255" y1="138.1156" y2="138.1156"/><g data-visibility-modifier="IE_MANDATORY"><ellipse cx="606.08" cy="151.7641" fill="#000000" rx="3" ry="3" style="stroke:#000000;stroke-width:1;"/></g><text fill="#E5E7EB" font-family="DejaVu Sans" font-size="14" lengthAdjust="spacing" textLength="105.7861" x="615.08" y="155.1107">id : string &#171;PK&#187;</text><line style="stroke:#60A5FA;stroke-width:1;" x1="596.08" x2="755.7255" y1="162.4125" y2="162.4125"/><text fill="#E5E7EB" font-family="DejaVu Sans" font-size="14" lengthAdjust="spacing" textLength="149.6455" x="601.08" y="179.4076">playerId : string &#171;FK&#187;</text><text fill="#E5E7EB" font-family="DejaVu Sans" font-size="14" lengthAdjust="spacing" textLength="84.041" x="601.08" y="195.7045">questId : int</text><text fill="#E5E7EB" font-family="DejaVu Sans" font-size="14" lengthAdjust="spacing" textLength="92.9209" x="601.08" y="212.0014">progress : int</text><text fill="#E5E7EB" font-family="DejaVu Sans" font-size="14" lengthAdjust="spacing" textLength="124.7832" x="601.08" y="228.2982">claimed : boolean</text></g><!--class PQR--><g class="entity" data-qualified-name="PQR" data-source-line="41" id="ent0005"><rect fill="#111827" height="137.75" rx="2.5" ry="2.5" style="stroke:#60A5FA;stroke-width:0.5;" width="206.4365" x="275.7" y="400.85"/><text fill="#E5E7EB" font-family="DejaVu Sans" font-size="12" font-style="italic" lengthAdjust="spacing" textLength="45.0762" x="356.3802" y="416.9887">&#171;table&#187;</text><text fill="#E5E7EB" font-family="DejaVu Sans" font-size="14" lengthAdjust="spacing" textLength="200.4365" x="278.7" y="432.8139">QUEST_PROGRESS_REWARD</text><line style="stroke:#60A5FA;stroke-width:0.5;" x1="276.7" x2="481.1365" y1="441.1156" y2="441.1156"/><g data-visibility-modifier="IE_MANDATORY"><ellipse cx="286.7" cy="454.7641" fill="#000000" rx="3" ry="3" style="stroke:#000000;stroke-width:1;"/></g><text fill="#E5E7EB" font-family="DejaVu Sans" font-size="14" lengthAdjust="spacing" textLength="105.7861" x="295.7" y="458.1107">id : string &#171;PK&#187;</text><line style="stroke:#60A5FA;stroke-width:1;" x1="276.7" x2="481.1365" y1="465.4125" y2="465.4125"/><text fill="#E5E7EB" font-family="DejaVu Sans" font-size="14" lengthAdjust="spacing" textLength="149.6455" x="281.7" y="482.4076">playerId : string &#171;FK&#187;</text><text fill="#E5E7EB" font-family="DejaVu Sans" font-size="14" lengthAdjust="spacing" textLength="89.4346" x="281.7" y="498.7045">track : string</text><text fill="#E5E7EB" font-family="DejaVu Sans" font-size="14" lengthAdjust="spacing" textLength="70.7314" x="281.7" y="515.0014">stage : int</text><text fill="#E5E7EB" font-family="DejaVu Sans" font-size="14" lengthAdjust="spacing" textLength="124.7832" x="281.7" y="531.2982">claimed : boolean</text></g><!--class LBS--><g class="entity" data-qualified-name="LBS" data-source-line="49" id="ent0006"><rect fill="#111827" height="121.4531" rx="2.5" ry="2.5" style="stroke:#60A5FA;stroke-width:0.5;" width="167.54" x="592.14" y="599"/><text fill="#E5E7EB" font-family="DejaVu Sans" font-size="12" font-style="italic" lengthAdjust="spacing" textLength="45.0762" x="653.3719" y="615.1387">&#171;table&#187;</text><text fill="#E5E7EB" font-family="DejaVu Sans" font-size="14" lengthAdjust="spacing" textLength="161.54" x="595.14" y="630.9639">LEADERBOARD_SCORE</text><line style="stroke:#60A5FA;stroke-width:0.5;" x1="593.14" x2="758.68" y1="639.2656" y2="639.2656"/><g data-visibility-modifier="IE_MANDATORY"><ellipse cx="603.14" cy="652.9141" fill="#000000" rx="3" ry="3" style="stroke:#000000;stroke-width:1;"/></g><text fill="#E5E7EB" font-family="DejaVu Sans" font-size="14" lengthAdjust="spacing" textLength="105.7861" x="612.14" y="656.2607">id : string &#171;PK&#187;</text><line style="stroke:#60A5FA;stroke-width:1;" x1="593.14" x2="758.68" y1="663.5625" y2="663.5625"/><text fill="#E5E7EB" font-family="DejaVu Sans" font-size="14" lengthAdjust="spacing" textLength="149.6455" x="598.14" y="680.5576">playerId : string &#171;FK&#187;</text><text fill="#E5E7EB" font-family="DejaVu Sans" font-size="14" lengthAdjust="spacing" textLength="85.0801" x="598.14" y="696.8545">type : string</text><text fill="#E5E7EB" font-family="DejaVu Sans" font-size="14" lengthAdjust="spacing" textLength="69.7949" x="598.14" y="713.1514">score : int</text></g><!--class IR--><g class="entity" data-qualified-name="IR" data-source-line="56" id="ent0007"><rect fill="#111827" height="121.4531" rx="2.5" ry="2.5" style="stroke:#60A5FA;stroke-width:0.5;" width="183.3223" x="869.68" y="698"/><text fill="#E5E7EB" font-family="DejaVu Sans" font-size="12" font-style="italic" lengthAdjust="spacing" textLength="45.0762" x="938.803" y="714.1387">&#171;table&#187;</text><text fill="#E5E7EB" font-family="DejaVu Sans" font-size="14" lengthAdjust="spacing" textLength="168.3691" x="877.1566" y="729.9639">IDEMPOTENCY_RECORD</text><line style="stroke:#60A5FA;stroke-width:0.5;" x1="870.68" x2="1052.0023" y1="738.2656" y2="738.2656"/><g data-visibility-modifier="IE_MANDATORY"><ellipse cx="880.68" cy="751.9141" fill="#000000" rx="3" ry="3" style="stroke:#000000;stroke-width:1;"/></g><text fill="#E5E7EB" font-family="DejaVu Sans" font-size="14" lengthAdjust="spacing" textLength="105.7861" x="889.68" y="755.2607">id : string &#171;PK&#187;</text><line style="stroke:#60A5FA;stroke-width:1;" x1="870.68" x2="1052.0023" y1="762.5625" y2="762.5625"/><text fill="#E5E7EB" font-family="DejaVu Sans" font-size="14" lengthAdjust="spacing" textLength="149.6455" x="875.68" y="779.5576">playerId : string &#171;FK&#187;</text><text fill="#E5E7EB" font-family="DejaVu Sans" font-size="14" lengthAdjust="spacing" textLength="171.3223" x="875.68" y="795.8545">idempotencyKey : string</text><text fill="#E5E7EB" font-family="DejaVu Sans" font-size="14" lengthAdjust="spacing" textLength="96.8994" x="875.68" y="812.1514">action : string</text></g><!--link PLAYER to PF--><g class="link" data-entity-1="ent0002" data-entity-2="ent0003" data-link-type="crowfoot" data-source-line="64" id="lnk8"><path codeLine="64" d="M78,424.98 C78,325.74 78,67.72 78,67.72 C78,67.72 190.75,67.72 279.88,67.72" fill="none" id="PLAYER-PF" style="stroke:#94A3B8;stroke-width:1;"/><line style="stroke:#94A3B8;stroke-width:1;" x1="82" x2="74" y1="428.98" y2="428.98"/><line style="stroke:#94A3B8;stroke-width:1;" x1="82" x2="74" y1="425.98" y2="425.98"/><line style="stroke:#94A3B8;stroke-width:1;" x1="78" x2="78" y1="424.98" y2="432.98"/><line style="stroke:#94A3B8;stroke-width:1;" x1="289.88" x2="297.88" y1="67.72" y2="61.72"/><line style="stroke:#94A3B8;stroke-width:1;" x1="289.88" x2="297.88" y1="67.72" y2="73.72"/><line style="stroke:#94A3B8;stroke-width:1;" x1="289.88" x2="297.88" y1="67.72" y2="67.72"/><ellipse cx="283.88" cy="67.72" fill="none" rx="4" ry="4" style="stroke:#94A3B8;stroke-width:1;"/><text fill="#E5E7EB" font-family="DejaVu Sans" font-size="13" lengthAdjust="spacing" textLength="70.1797" x="7" y="153.4769">formations</text></g><!--link PLAYER to PQ--><g class="link" data-entity-1="ent0002" data-entity-2="ent0004" data-link-type="crowfoot" data-source-line="65" id="lnk9"><path codeLine="65" d="M122,424.99 C122,347.43 122,182.02 122,182.02 C122,182.02 422.92,182.02 576.77,182.02" fill="none" id="PLAYER-PQ" style="stroke:#94A3B8;stroke-width:1;"/><line style="stroke:#94A3B8;stroke-width:1;" x1="126" x2="118" y1="428.99" y2="428.99"/><line style="stroke:#94A3B8;stroke-width:1;" x1="126" x2="118" y1="425.99" y2="425.99"/><line style="stroke:#94A3B8;stroke-width:1;" x1="122" x2="122" y1="424.99" y2="432.99"/><line style="stroke:#94A3B8;stroke-width:1;" x1="586.77" x2="594.77" y1="182.02" y2="176.02"/><line style="stroke:#94A3B8;stroke-width:1;" x1="586.77" x2="594.77" y1="182.02" y2="188.02"/><line style="stroke:#94A3B8;stroke-width:1;" x1="586.77" x2="594.77" y1="182.02" y2="182.02"/><ellipse cx="580.77" cy="182.02" fill="none" rx="4" ry="4" style="stroke:#94A3B8;stroke-width:1;"/><text fill="#E5E7EB" font-family="DejaVu Sans" font-size="13" lengthAdjust="spacing" textLength="43.1323" x="188.9" y="195.0869">quests</text></g><!--link PLAYER to PQR--><g class="link" data-entity-1="ent0002" data-entity-2="ent0005" data-link-type="crowfoot" data-source-line="66" id="lnk10"><path codeLine="66" d="M173.95,469.72 C206.6,469.72 220.73,469.72 257.33,469.72" fill="none" id="PLAYER-PQR" style="stroke:#94A3B8;stroke-width:1;"/><line style="stroke:#94A3B8;stroke-width:1;" x1="169.95" x2="169.95" y1="473.72" y2="465.72"/><line style="stroke:#94A3B8;stroke-width:1;" x1="172.95" x2="172.95" y1="473.72" y2="465.72"/><line style="stroke:#94A3B8;stroke-width:1;" x1="173.95" x2="165.95" y1="469.72" y2="469.72"/><line style="stroke:#94A3B8;stroke-width:1;" x1="267.33" x2="275.33" y1="469.72" y2="463.72"/><line style="stroke:#94A3B8;stroke-width:1;" x1="267.33" x2="275.33" y1="469.72" y2="475.72"/><line style="stroke:#94A3B8;stroke-width:1;" x1="267.33" x2="275.33" y1="469.72" y2="469.72"/><ellipse cx="261.33" cy="469.72" fill="none" rx="4" ry="4" style="stroke:#94A3B8;stroke-width:1;"/><text fill="#E5E7EB" font-family="DejaVu Sans" font-size="13" lengthAdjust="spacing" textLength="52.311" x="167.64" y="482.7869">rewards</text></g><!--link PLAYER to LBS--><g class="link" data-entity-1="ent0002" data-entity-2="ent0006" data-link-type="crowfoot" data-source-line="67" id="lnk11"><path codeLine="67" d="M122,514.36 C122,569.57 122,659.72 122,659.72 C122,659.72 418.83,659.72 573.78,659.72" fill="none" id="PLAYER-LBS" style="stroke:#94A3B8;stroke-width:1;"/><line style="stroke:#94A3B8;stroke-width:1;" x1="118" x2="126" y1="510.36" y2="510.36"/><line style="stroke:#94A3B8;stroke-width:1;" x1="118" x2="126" y1="513.36" y2="513.36"/><line style="stroke:#94A3B8;stroke-width:1;" x1="122" x2="122" y1="514.36" y2="506.36"/><line style="stroke:#94A3B8;stroke-width:1;" x1="583.78" x2="591.78" y1="659.72" y2="653.72"/><line style="stroke:#94A3B8;stroke-width:1;" x1="583.78" x2="591.78" y1="659.72" y2="665.72"/><line style="stroke:#94A3B8;stroke-width:1;" x1="583.78" x2="591.78" y1="659.72" y2="659.72"/><ellipse cx="577.78" cy="659.72" fill="none" rx="4" ry="4" style="stroke:#94A3B8;stroke-width:1;"/><text fill="#E5E7EB" font-family="DejaVu Sans" font-size="13" lengthAdjust="spacing" textLength="29.0786" x="250.21" y="672.7869">rank</text></g><!--link PLAYER to IR--><g class="link" data-entity-1="ent0002" data-entity-2="ent0007" data-link-type="crowfoot" data-source-line="68" id="lnk12"><path codeLine="68" d="M78,514.24 C78,594.25 78,769.95 78,769.95 C78,769.95 625.06,769.95 851.31,769.95" fill="none" id="PLAYER-IR" style="stroke:#94A3B8;stroke-width:1;"/><line style="stroke:#94A3B8;stroke-width:1;" x1="74" x2="82" y1="510.24" y2="510.24"/><line style="stroke:#94A3B8;stroke-width:1;" x1="74" x2="82" y1="513.24" y2="513.24"/><line style="stroke:#94A3B8;stroke-width:1;" x1="78" x2="78" y1="514.24" y2="506.24"/><line style="stroke:#94A3B8;stroke-width:1;" x1="861.31" x2="869.31" y1="769.95" y2="763.95"/><line style="stroke:#94A3B8;stroke-width:1;" x1="861.31" x2="869.31" y1="769.95" y2="775.95"/><line style="stroke:#94A3B8;stroke-width:1;" x1="861.31" x2="869.31" y1="769.95" y2="769.95"/><ellipse cx="855.31" cy="769.95" fill="none" rx="4" ry="4" style="stroke:#94A3B8;stroke-width:1;"/><text fill="#E5E7EB" font-family="DejaVu Sans" font-size="13" lengthAdjust="spacing" textLength="84.9063" x="256.8" y="783.0169">idempotency</text></g><!--link PF to PQ--><!--link PQR to LBS--><!--link LBS to IR--><?plantuml-src hPHVRzem5CNV-HHNtTkaI0J6A0WXyITCKMa32TjKJHDouXjm2JQpZH1gzzrd1r0DxA4FlA1mplNnBzStBZ3Ne0L8jbXge4nYffdWbIMZ21cJMO4LjM9yGoHPGqgorKAABQS3KGW9dwgfNwrLdOg2STJx3OAGUYaSGoq95Jl65v2JGhcX57EoBVH8SFr4rWX3V24_jf0GhlvVTTmR6zZ4r2dfIIbsHxFrXTJJ-qjpjcJPYgDIu3iM5nGLRg3bleWaV6L5ttVLh21cyMi5e7_P2j_txsjDwmX9KHxLhrNIo8bHhy7_kjtHA56KZRFXW-lqlDQgDqlBZM_LiqPEhUpaqnH9ZYQ_WbmplOUxoRZt7CHtG1GS7g7JqIGjiDijz_iCZ4BRK4XxG9tEvA7RDUlFbyz7KVpOcuNHqo5ez94G0CypFvk2x566P_xeu7DxvYVP_5U5qCe8BygCuHN3z7kGp0xxJs-p_vyjAbqwZ6jRAiL2sX4v2URCsHfjGIf4WSIbAd7capZw5WT9Ce-3dxruUCIBRyEdfPc5imPfii0FqOs3tZ28-v5XcYU3A0vAid4_kH6P7LSNB1Fo1FOE4Gw3nqaq2vu6pwO_XkBGd_16xJ7tr7eZDF9i_u1x5uUKDzcxOhw7u_2_lNcUUBKJt8PSo3MnXUhIdHgt78vh9pQMn1sHzDAppMsNbyU54Ter3go16O7tozop5FblpuHMRAwZcAYAZNEaCFu7?></g></svg>