<svg xmlns="http://www.w3.org/2000/svg" xmlns:xlink="http://www.w3.org/1999/xlink" contentStyleType="text/css" data-diagram-type="DESCRIPTION" height="315px" preserveAspectRatio="none" style="width:494px;height:315px;background:#0B1220;" version="1.1" viewBox="0 0 494 315" width="494px" zoomAndPan="magnify"><?plantuml 1.2026.4beta2?><defs/><g><rect fill="#0B1220" height="315" style="stroke:none;stroke-width:1;" width="494" x="0" y="0"/><!--cluster Combat Module--><g class="cluster" data-qualified-name="Combat Module" data-source-line="24" id="ent0003"><rect fill="#3A0F1A" height="145" rx="2.5" ry="2.5" style="stroke:#64748B;stroke-width:1;" width="157.19" x="93.57" y="148"/><text fill="#E2E8F0" font-family="DejaVu Sans" font-size="14" font-weight="700" lengthAdjust="spacing" textLength="123.3477" x="110.4912" y="162.9951">Combat Module</text></g><!--cluster Persistence--><g class="cluster" data-qualified-name="Persistence" data-source-line="28" id="ent0006"><rect fill="#3F1D2E" height="294" rx="2.5" ry="2.5" style="stroke:#64748B;stroke-width:1;" width="202.08" x="278.76" y="7"/><text fill="#E2E8F0" font-family="DejaVu Sans" font-size="14" font-weight="700" lengthAdjust="spacing" textLength="92.0732" x="333.7634" y="21.9951">Persistence</text></g><!--entity UC_Start--><g class="entity" data-qualified-name="Combat Module.UC_Start" data-source-line="25" id="ent0004"><ellipse cx="172.1616" cy="262.0036" fill="#5F1328" rx="59.7916" ry="14.5236" style="stroke:#F8FAFC;stroke-width:0.5;"/><text fill="#F8FAFC" font-family="DejaVu Sans" font-size="14" lengthAdjust="spacing" textLength="80.3154" x="132.0039" y="266.6521">Start Battle</text></g><!--entity UC_Finish--><g class="entity" data-qualified-name="Combat Module.UC_Finish" data-source-line="26" id="ent0005"><ellipse cx="172.1555" cy="197.9991" fill="#5F1328" rx="62.5955" ry="14.9191" style="stroke:#F8FAFC;stroke-width:0.5;"/><text fill="#F8FAFC" font-family="DejaVu Sans" font-size="14" lengthAdjust="spacing" textLength="86.9873" x="128.6618" y="202.6475">Finish Battle</text></g><!--entity DB_B--><g class="entity" data-qualified-name="Persistence.DB_B" data-source-line="29" id="ent0007"><ellipse cx="379.8028" cy="269.0046" fill="#5B233F" rx="70.2728" ry="16.4546" style="stroke:#F8FAFC;stroke-width:0.5;"/><text fill="#F8FAFC" font-family="DejaVu Sans" font-size="14" lengthAdjust="spacing" textLength="107.0645" x="326.2705" y="273.653">battle_sessions</text></g><!--entity DB_RT--><g class="entity" data-qualified-name="Persistence.DB_RT" data-source-line="30" id="ent0008"><ellipse cx="379.8014" cy="197.9983" fill="#5B233F" rx="85.0414" ry="19.4083" style="stroke:#F8FAFC;stroke-width:0.5;"/><text fill="#F8FAFC" font-family="DejaVu Sans" font-size="14" lengthAdjust="spacing" textLength="142.4199" x="308.5914" y="202.6467">reward_transactions</text></g><!--entity DB_LS--><g class="entity" data-qualified-name="Persistence.DB_LS" data-source-line="31" id="ent0009"><ellipse cx="379.8" cy="125" fill="#5B233F" rx="82.8" ry="18.96" style="stroke:#F8FAFC;stroke-width:0.5;"/><text fill="#F8FAFC" font-family="DejaVu Sans" font-size="14" lengthAdjust="spacing" textLength="137.2314" x="311.1843" y="129.6484">leaderboard_scores</text></g><!--entity DB_P--><g class="entity" data-qualified-name="Persistence.DB_P" data-source-line="32" id="ent0010"><ellipse cx="379.7972" cy="57.0036" fill="#5B233F" rx="39.2772" ry="14.5236" style="stroke:#F8FAFC;stroke-width:0.5;"/><text fill="#F8FAFC" font-family="DejaVu Sans" font-size="14" lengthAdjust="spacing" textLength="51.3037" x="354.1453" y="61.6521">players</text></g><!--entity player--><g class="entity" data-qualified-name="player" data-source-line="23" id="ent0002"><ellipse cx="27.7827" cy="200.35" fill="#F1F1F1" rx="8" ry="8" style="stroke:#93C5FD;stroke-width:0.5;"/><path d="M27.7827,208.35 L27.7827,235.35 M14.7827,216.35 L40.7827,216.35 M27.7827,235.35 L14.7827,250.35 M27.7827,235.35 L40.7827,250.35" fill="none" style="stroke:#93C5FD;stroke-width:0.5;"/><text fill="#DBEAFE" font-family="DejaVu Sans" font-size="14" lengthAdjust="spacing" textLength="43.5654" x="6" y="264.8451">Player</text></g><!--link player to UC_Start--><g class="link" data-entity-1="ent0002" data-entity-2="ent0004" data-link-type="dependency" data-source-line="34" id="lnk11"><path d="M49.79,234.72 C70.06,239.28 95.5063,244.9933 121.2463,250.7833" fill="none" id="player-to-UC_Start" style="stroke:#CBD5E1;stroke-width:1;"/><polygon fill="#CBD5E1" points="127.1,252.1,119.1972,246.2224,122.2219,251.0027,117.4416,254.0274,127.1,252.1" style="stroke:#CBD5E1;stroke-width:1;"/></g><!--link player to UC_Finish--><g class="link" data-entity-1="ent0002" data-entity-2="ent0005" data-link-type="dependency" data-source-line="35" id="lnk12"><path d="M49.79,225.28 C69.59,220.83 94.0862,215.3265 119.4762,209.6165" fill="none" id="player-to-UC_Finish" style="stroke:#CBD5E1;stroke-width:1;"/><polygon fill="#CBD5E1" points="125.33,208.3,115.6717,206.3722,120.4518,209.3971,117.427,214.1772,125.33,208.3" style="stroke:#CBD5E1;stroke-width:1;"/></g><!--link UC_Start to DB_B--><g class="link" data-entity-1="ent0004" data-entity-2="ent0007" data-link-type="dependency" data-source-line="36" id="lnk13"><path d="M231.81,264 C256.15,264.82 278.5635,265.5863 303.8835,266.4463" fill="none" id="UC_Start-to-DB_B" style="stroke:#CBD5E1;stroke-width:1;"/><polygon fill="#CBD5E1" points="309.88,266.65,301.021,262.3468,304.8829,266.4803,300.7494,270.3422,309.88,266.65" style="stroke:#CBD5E1;stroke-width:1;"/></g><!--link UC_Finish to DB_B--><g class="link" data-entity-1="ent0005" data-entity-2="ent0007" data-link-type="dependency" data-source-line="37" id="lnk14"><path d="M207.84,210.63 C223.45,216.41 242.08,223.41 258.76,230 C264.13,232.12 265.33,233.02 270.76,235 C291.54,242.58 309.1808,248.3202 328.8608,254.3202" fill="none" id="UC_Finish-to-DB_B" style="stroke:#CBD5E1;stroke-width:1;"/><polygon fill="#CBD5E1" points="334.6,256.07,327.1577,249.6192,329.8173,254.6119,324.8247,257.2715,334.6,256.07" style="stroke:#CBD5E1;stroke-width:1;"/></g><!--link UC_Finish to DB_RT--><g class="link" data-entity-1="ent0005" data-entity-2="ent0008" data-link-type="dependency" data-source-line="38" id="lnk15"><path d="M235.14,198 C253.82,198 268.66,198 288.53,198" fill="none" id="UC_Finish-to-DB_RT" style="stroke:#CBD5E1;stroke-width:1;"/><polygon fill="#CBD5E1" points="294.53,198,285.53,194,289.53,198,285.53,202,294.53,198" style="stroke:#CBD5E1;stroke-width:1;"/></g><!--link UC_Finish to DB_LS--><g class="link" data-entity-1="ent0005" data-entity-2="ent0009" data-link-type="dependency" data-source-line="39" id="lnk16"><path d="M206.02,185.16 C224.89,177.88 249.08,168.72 270.76,161 C290.22,154.07 306.1024,148.6809 324.8224,142.5009" fill="none" id="UC_Finish-to-DB_LS" style="stroke:#CBD5E1;stroke-width:1;"/><polygon fill="#CBD5E1" points="330.52,140.62,320.7197,139.643,325.772,142.1874,323.2276,147.2398,330.52,140.62" style="stroke:#CBD5E1;stroke-width:1;"/></g><!--link UC_Finish to DB_P--><g class="link" data-entity-1="ent0005" data-entity-2="ent0010" data-link-type="dependency" data-source-line="40" id="lnk17"><path d="M182.61,182.91 C198.12,159.37 231.26,113.99 270.76,89 C292.74,75.09 315.1635,68.2009 337.2935,63.6409" fill="none" id="UC_Finish-to-DB_P" style="stroke:#CBD5E1;stroke-width:1;"/><polygon fill="#CBD5E1" points="343.17,62.43,333.5479,60.3286,338.2729,63.4391,335.1624,68.164,343.17,62.43" style="stroke:#CBD5E1;stroke-width:1;"/></g><?plantuml-src TP9FR-8m4CNl_XGZE5SYILdefLAXwgcxGatRAnhRuv2jiP7j25Khlliw2KtDdzwiDxzvC_DaJIf0iE3gQXD0rev4gArXp7_KPeSEjy1HV5JEDaOkhROEnXEUvVaa8Vm6fTtNfWA5sbDIaQImqU79cl07jmIFz1VV6oZH-ElKSGHDQKOyGHwSi_jZKN0vfImfxkA6M54PFZL1Um6QIgTh31hyOm0BwoIvezclszdjd4SrdPxJN4tO8N504MBbelkk45CbJxib9rHqqjru4kYlJ5TpXKgSzW_QuZpuJELtnImwitwTbSPFSe0UTjsBVTyvMjejnm2_hMmqZM1Su4Hbs6tmjSse3EX271D2YqIRj-MwryPJbHNvF8MVQbFxpHbz5B_mGxh1YfolVI0ZklagapcTpkUTrzgJz_7F-SxqSR5UH3-U5uLAMKTxT78TNFmwsFtHWNzvlTQW2MFEtBPTNbX70_zSNkFx20TeDJ07rfVWvkP-IEXCwtDWGtwjt5x2lZFwMNfvlTIUoqjjzHy0?></g></svg>