<svg xmlns="http://www.w3.org/2000/svg" xmlns:xlink="http://www.w3.org/1999/xlink" contentStyleType="text/css" data-diagram-type="DESCRIPTION" height="523px" preserveAspectRatio="none" style="width:613px;height:523px;background:#0B1220;" version="1.1" viewBox="0 0 613 523" width="613px" zoomAndPan="magnify"><?plantuml 1.2026.4beta2?><defs/><g><rect fill="#0B1220" height="523" style="stroke:none;stroke-width:1;" width="613" x="0" y="0"/><!--cluster Character & Formation Module--><g class="cluster" data-qualified-name="Character . Formation Module" data-source-line="24" id="ent0003"><rect fill="#0F3D2E" height="502" rx="2.5" ry="2.5" style="stroke:#64748B;stroke-width:1;" width="258.94" x="92.57" y="7"/><text fill="#E2E8F0" font-family="DejaVu Sans" font-size="14" font-weight="700" lengthAdjust="spacing" textLength="243.291" x="100.3945" y="21.9951">Character &amp; Formation Module</text></g><!--cluster Persistence--><g class="cluster" data-qualified-name="Persistence" data-source-line="33" id="ent0011"><rect fill="#3F1D2E" height="363" rx="2.5" ry="2.5" style="stroke:#64748B;stroke-width:1;" width="221.48" x="378.51" y="77"/><text fill="#E2E8F0" font-family="DejaVu Sans" font-size="14" font-weight="700" lengthAdjust="spacing" textLength="92.0732" x="443.2134" y="91.9951">Persistence</text></g><!--entity UC_CreateChar--><g class="entity" data-qualified-name="Character . Formation Module.UC_CreateChar" data-source-line="25" id="ent0004"><ellipse cx="222.0386" cy="337.9977" fill="#166B4F" rx="75.6886" ry="17.5377" style="stroke:#F8FAFC;stroke-width:0.5;"/><text fill="#F8FAFC" font-family="DejaVu Sans" font-size="14" lengthAdjust="spacing" textLength="120.3945" x="161.8414" y="342.6462">Create Character</text></g><!--entity UC_ListChar--><g class="entity" data-qualified-name="Character . Formation Module.UC_ListChar" data-source-line="26" id="ent0005"><ellipse cx="222.0367" cy="476.9973" fill="#166B4F" rx="69.5867" ry="16.3173" style="stroke:#F8FAFC;stroke-width:0.5;"/><text fill="#F8FAFC" font-family="DejaVu Sans" font-size="14" lengthAdjust="spacing" textLength="105.335" x="169.3692" y="481.6458">List Characters</text></g><!--entity UC_DeleteChar--><g class="entity" data-qualified-name="Character . Formation Module.UC_DeleteChar" data-source-line="27" id="ent0006"><ellipse cx="222.0365" cy="407.9993" fill="#166B4F" rx="75.3465" ry="17.4693" style="stroke:#F8FAFC;stroke-width:0.5;"/><text fill="#F8FAFC" font-family="DejaVu Sans" font-size="14" lengthAdjust="spacing" textLength="119.5674" x="162.2528" y="412.6477">Delete Character</text></g><!--entity UC_UpdateStats--><g class="entity" data-qualified-name="Character . Formation Module.UC_UpdateStats" data-source-line="28" id="ent0007"><ellipse cx="222.0426" cy="267.0045" fill="#166B4F" rx="79.4726" ry="18.2945" style="stroke:#F8FAFC;stroke-width:0.5;"/><text fill="#F8FAFC" font-family="DejaVu Sans" font-size="14" lengthAdjust="spacing" textLength="129.4316" x="157.3268" y="271.653">Update Base Stats</text></g><!--entity UC_GetFormation--><g class="entity" data-qualified-name="Character . Formation Module.UC_GetFormation" data-source-line="29" id="ent0008"><ellipse cx="222.0418" cy="127.0024" fill="#166B4F" rx="67.8118" ry="15.9624" style="stroke:#F8FAFC;stroke-width:0.5;"/><text fill="#F8FAFC" font-family="DejaVu Sans" font-size="14" lengthAdjust="spacing" textLength="100.8096" x="171.637" y="131.6508">Get Formation</text></g><!--entity UC_UpdateFormation--><g class="entity" data-qualified-name="Character . Formation Module.UC_UpdateFormation" data-source-line="30" id="ent0009"><ellipse cx="222.0417" cy="196.0023" fill="#166B4F" rx="78.2617" ry="18.0523" style="stroke:#F8FAFC;stroke-width:0.5;"/><text fill="#F8FAFC" font-family="DejaVu Sans" font-size="14" lengthAdjust="spacing" textLength="126.5605" x="158.7614" y="200.6508">Update Formation</text></g><!--entity UC_FindOpp--><g class="entity" data-qualified-name="Character . Formation Module.UC_FindOpp" data-source-line="31" id="ent0010"><ellipse cx="222.0393" cy="59.0019" fill="#166B4F" rx="71.7093" ry="16.7419" style="stroke:#F8FAFC;stroke-width:0.5;"/><text fill="#F8FAFC" font-family="DejaVu Sans" font-size="14" lengthAdjust="spacing" textLength="110.6533" x="166.7126" y="63.6503">Find Opponents</text></g><!--entity DB_CH--><g class="entity" data-qualified-name="Persistence.DB_CH" data-source-line="34" id="ent0012"><ellipse cx="489.2521" cy="409.0036" fill="#5B233F" rx="55.5621" ry="14.5236" style="stroke:#F8FAFC;stroke-width:0.5;"/><text fill="#F8FAFC" font-family="DejaVu Sans" font-size="14" lengthAdjust="spacing" textLength="74.334" x="452.0851" y="413.6521">characters</text></g><!--entity DB_CA--><g class="entity" data-qualified-name="Persistence.DB_CA" data-source-line="35" id="ent0013"><ellipse cx="489.2518" cy="337.9984" fill="#5B233F" rx="94.7418" ry="21.3484" style="stroke:#F8FAFC;stroke-width:0.5;"/><text fill="#F8FAFC" font-family="DejaVu Sans" font-size="14" lengthAdjust="spacing" textLength="164.3975" x="407.0531" y="342.6468">character_appearances</text></g><!--entity DB_CS--><g class="entity" data-qualified-name="Persistence.DB_CS" data-source-line="36" id="ent0014"><ellipse cx="489.2497" cy="265.0039" fill="#5B233F" rx="70.7197" ry="16.5439" style="stroke:#F8FAFC;stroke-width:0.5;"/><text fill="#F8FAFC" font-family="DejaVu Sans" font-size="14" lengthAdjust="spacing" textLength="108.1855" x="435.1569" y="269.6524">character_stats</text></g><!--entity DB_PF--><g class="entity" data-qualified-name="Persistence.DB_PF" data-source-line="37" id="ent0015"><ellipse cx="489.2532" cy="195.0046" fill="#5B233F" rx="78.2732" ry="18.0546" style="stroke:#F8FAFC;stroke-width:0.5;"/><text fill="#F8FAFC" font-family="DejaVu Sans" font-size="14" lengthAdjust="spacing" textLength="126.5879" x="425.9592" y="199.6531">player_formations</text></g><!--entity DB_P--><g class="entity" data-qualified-name="Persistence.DB_P" data-source-line="38" id="ent0016"><ellipse cx="489.2472" cy="127.0036" fill="#5B233F" rx="39.2772" ry="14.5236" style="stroke:#F8FAFC;stroke-width:0.5;"/><text fill="#F8FAFC" font-family="DejaVu Sans" font-size="14" lengthAdjust="spacing" textLength="51.3037" x="463.5953" y="131.6521">players</text></g><!--entity player--><g class="entity" data-qualified-name="player" data-source-line="23" id="ent0002"><ellipse cx="27.7827" cy="237.35" fill="#F1F1F1" rx="8" ry="8" style="stroke:#93C5FD;stroke-width:0.5;"/><path d="M27.7827,245.35 L27.7827,272.35 M14.7827,253.35 L40.7827,253.35 M27.7827,272.35 L14.7827,287.35 M27.7827,272.35 L40.7827,287.35" fill="none" style="stroke:#93C5FD;stroke-width:0.5;"/><text fill="#DBEAFE" font-family="DejaVu Sans" font-size="14" lengthAdjust="spacing" textLength="43.5654" x="6" y="301.8451">Player</text></g><!--link player to UC_CreateChar--><g class="link" data-entity-1="ent0002" data-entity-2="ent0004" data-link-type="dependency" data-source-line="40" id="lnk17"><path d="M49.86,282.9 C59.93,289.89 72.42,297.69 84.57,303 C108.88,313.63 131.2504,320.205 155.7004,325.785" fill="none" id="player-to-UC_CreateChar" style="stroke:#CBD5E1;stroke-width:1;"/><polygon fill="#CBD5E1" points="161.55,327.12,153.6656,321.2178,156.6753,326.0075,151.8856,329.0172,161.55,327.12" style="stroke:#CBD5E1;stroke-width:1;"/></g><!--link player to UC_ListChar--><g class="link" data-entity-1="ent0002" data-entity-2="ent0005" data-link-type="dependency" data-source-line="41" id="lnk18"><path d="M30.44,305.64 C34.28,345.66 46.48,407.23 84.57,443 C103.08,460.38 123.1661,468.1803 147.5061,472.5903" fill="none" id="player-to-UC_ListChar" style="stroke:#CBD5E1;stroke-width:1;"/><polygon fill="#CBD5E1" points="153.41,473.66,145.2673,468.1196,148.4901,472.7686,143.8411,475.9914,153.41,473.66" style="stroke:#CBD5E1;stroke-width:1;"/></g><!--link player to UC_DeleteChar--><g class="link" data-entity-1="ent0002" data-entity-2="ent0006" data-link-type="dependency" data-source-line="42" id="lnk19"><path d="M40.21,305.54 C48.87,328.33 63.03,355.98 84.57,373 C103.57,388.01 122.4119,395.3989 145.5819,400.3389" fill="none" id="player-to-UC_DeleteChar" style="stroke:#CBD5E1;stroke-width:1;"/><polygon fill="#CBD5E1" points="151.45,401.59,143.4819,395.8012,146.5599,400.5474,141.8138,403.6254,151.45,401.59" style="stroke:#CBD5E1;stroke-width:1;"/></g><!--link player to UC_UpdateStats--><g class="link" data-entity-1="ent0002" data-entity-2="ent0007" data-link-type="dependency" data-source-line="43" id="lnk20"><path d="M49.72,267 C72.01,267 102.63,267 136.31,267" fill="none" id="player-to-UC_UpdateStats" style="stroke:#CBD5E1;stroke-width:1;"/><polygon fill="#CBD5E1" points="142.31,267,133.31,263,137.31,267,133.31,271,142.31,267" style="stroke:#CBD5E1;stroke-width:1;"/></g><!--link player to UC_GetFormation--><g class="link" data-entity-1="ent0002" data-entity-2="ent0008" data-link-type="dependency" data-source-line="44" id="lnk21"><path d="M39.84,228.52 C48.42,205.38 62.62,177.17 84.57,160 C104.92,144.08 125.9029,136.7419 150.4429,132.3719" fill="none" id="player-to-UC_GetFormation" style="stroke:#CBD5E1;stroke-width:1;"/><polygon fill="#CBD5E1" points="156.35,131.32,146.7881,128.9598,151.4274,132.1966,148.1907,136.8359,156.35,131.32" style="stroke:#CBD5E1;stroke-width:1;"/></g><!--link player to UC_UpdateFormation--><g class="link" data-entity-1="ent0002" data-entity-2="ent0009" data-link-type="dependency" data-source-line="45" id="lnk22"><path d="M49.86,251.1 C59.93,244.11 72.42,236.31 84.57,231 C108.32,220.62 129.9542,214.1815 154.0042,208.6215" fill="none" id="player-to-UC_UpdateFormation" style="stroke:#CBD5E1;stroke-width:1;"/><polygon fill="#CBD5E1" points="159.85,207.27,150.1803,205.4,154.9785,208.3962,151.9823,213.1944,159.85,207.27" style="stroke:#CBD5E1;stroke-width:1;"/></g><!--link player to UC_FindOpp--><g class="link" data-entity-1="ent0002" data-entity-2="ent0010" data-link-type="dependency" data-source-line="46" id="lnk23"><path d="M30.72,228.69 C34.81,189.38 47.22,129.14 84.57,94 C102.74,76.9 122.2011,69.0192 146.1311,64.3492" fill="none" id="player-to-UC_FindOpp" style="stroke:#CBD5E1;stroke-width:1;"/><polygon fill="#CBD5E1" points="152.02,63.2,142.4205,60.9979,147.1126,64.1577,143.9528,68.8498,152.02,63.2" style="stroke:#CBD5E1;stroke-width:1;"/></g><!--link UC_CreateChar to DB_CH--><g class="link" data-entity-1="ent0004" data-entity-2="ent0012" data-link-type="dependency" data-source-line="47" id="lnk24"><path d="M276.85,350.51 C302.1,356.71 332.52,364.65 359.51,373 C364.48,374.54 365.55,375.43 370.51,377 C396.05,385.1 419.2922,391.5034 442.1522,397.4334" fill="none" id="UC_CreateChar-to-DB_CH" style="stroke:#CBD5E1;stroke-width:1;"/><polygon fill="#CBD5E1" points="447.96,398.94,440.2527,392.8083,443.1202,397.6845,438.244,400.552,447.96,398.94" style="stroke:#CBD5E1;stroke-width:1;"/></g><!--link UC_CreateChar to DB_CA--><g class="link" data-entity-1="ent0004" data-entity-2="ent0013" data-link-type="dependency" data-source-line="48" id="lnk25"><path d="M297.97,338 C327.84,338 356.56,338 388.1,338" fill="none" id="UC_CreateChar-to-DB_CA" style="stroke:#CBD5E1;stroke-width:1;"/><polygon fill="#CBD5E1" points="394.1,338,385.1,334,389.1,338,385.1,342,394.1,338" style="stroke:#CBD5E1;stroke-width:1;"/></g><!--link UC_CreateChar to DB_CS--><g class="link" data-entity-1="ent0004" data-entity-2="ent0014" data-link-type="dependency" data-source-line="49" id="lnk26"><path d="M276.85,325.49 C302.1,319.29 332.52,311.35 359.51,303 C364.48,301.46 365.56,300.61 370.51,299 C393.88,291.39 414.3539,285.3438 436.1239,279.2238" fill="none" id="UC_CreateChar-to-DB_CS" style="stroke:#CBD5E1;stroke-width:1;"/><polygon fill="#CBD5E1" points="441.9,277.6,432.1533,276.1849,437.0866,278.9532,434.3184,283.8864,441.9,277.6" style="stroke:#CBD5E1;stroke-width:1;"/></g><!--link UC_ListChar to DB_CH--><g class="link" data-entity-1="ent0005" data-entity-2="ent0012" data-link-type="dependency" data-source-line="50" id="lnk27"><path d="M271.4,465.13 C297.51,458.67 330.3,450.5 359.51,443 C389.63,435.27 417.8427,427.8265 443.3327,421.0265" fill="none" id="UC_ListChar-to-DB_CH" style="stroke:#CBD5E1;stroke-width:1;"/><polygon fill="#CBD5E1" points="449.13,419.48,439.4031,417.935,444.299,420.7688,441.4651,425.6647,449.13,419.48" style="stroke:#CBD5E1;stroke-width:1;"/></g><!--link UC_DeleteChar to DB_CH--><g class="link" data-entity-1="ent0006" data-entity-2="ent0012" data-link-type="dependency" data-source-line="51" id="lnk28"><path d="M297.62,408.28 C340.83,408.44 388.27,408.6286 427.56,408.7686" fill="none" id="UC_DeleteChar-to-DB_CH" style="stroke:#CBD5E1;stroke-width:1;"/><polygon fill="#CBD5E1" points="433.56,408.79,424.5743,404.758,428.56,408.7722,424.5458,412.7579,433.56,408.79" style="stroke:#CBD5E1;stroke-width:1;"/></g><!--link UC_UpdateStats to DB_CS--><g class="link" data-entity-1="ent0007" data-entity-2="ent0014" data-link-type="dependency" data-source-line="52" id="lnk29"><path d="M301.89,266.41 C338.84,266.13 376.5002,265.8453 412.2602,265.5753" fill="none" id="UC_UpdateStats-to-DB_CS" style="stroke:#CBD5E1;stroke-width:1;"/><polygon fill="#CBD5E1" points="418.26,265.53,409.2301,261.5981,413.2601,265.5678,409.2905,269.5978,418.26,265.53" style="stroke:#CBD5E1;stroke-width:1;"/></g><!--link UC_GetFormation to DB_PF--><g class="link" data-entity-1="ent0008" data-entity-2="ent0015" data-link-type="dependency" data-source-line="53" id="lnk30"><path d="M271.44,138.35 C297.57,144.57 330.35,152.51 359.51,160 C385.42,166.65 408.3749,172.8387 432.1149,179.3687" fill="none" id="UC_GetFormation-to-DB_PF" style="stroke:#CBD5E1;stroke-width:1;"/><polygon fill="#CBD5E1" points="437.9,180.96,430.2831,174.7163,433.0791,179.6339,428.1614,182.4298,437.9,180.96" style="stroke:#CBD5E1;stroke-width:1;"/></g><!--link UC_UpdateFormation to DB_PF--><g class="link" data-entity-1="ent0009" data-entity-2="ent0015" data-link-type="dependency" data-source-line="54" id="lnk31"><path d="M300.46,195.71 C335.17,195.58 370.01,195.4425 404.73,195.3125" fill="none" id="UC_UpdateFormation-to-DB_PF" style="stroke:#CBD5E1;stroke-width:1;"/><polygon fill="#CBD5E1" points="410.73,195.29,401.7151,191.3237,405.73,195.3087,401.745,199.3237,410.73,195.29" style="stroke:#CBD5E1;stroke-width:1;"/></g><!--link UC_FindOpp to DB_P--><g class="link" data-entity-1="ent0010" data-entity-2="ent0016" data-link-type="dependency" data-source-line="55" id="lnk32"><path d="M271.68,71.47 C325.37,85.24 404.4281,105.5094 450.3581,117.2894" fill="none" id="UC_FindOpp-to-DB_P" style="stroke:#CBD5E1;stroke-width:1;"/><polygon fill="#CBD5E1" points="456.17,118.78,448.4459,112.6695,451.3268,117.5378,446.4584,120.4187,456.17,118.78" style="stroke:#CBD5E1;stroke-width:1;"/></g><?plantuml-src VLDBZvim4BxpAwoirDjA2UIrbqe9KTf37v7GzXeDU4pe4XiPezMgod-l7LusWRt1zvWPPZvoP8eeGMIMNXIXcSH4PO9xNlcMyG8aN4aCoLigHSLfA78XoTCyNlZ-t5AK5w3YFUCfOP2NQ34K6LIvEWgkVi4LoG7_mf-AHC3BSLNJ0bUumTYIxAGKxmsPn7I52uiiz8IGOgG-SYJc2u2dkJr6Xv5_7Y5x8IdAfjXwkLbkOutQtNtSihbtiof0eZJpu7u9aXMZhfl620mTTrLY0kL8TxPbm1BNts7xuU8Np7y9DhgoLuzpok439O6I5FSdh__EMNZHdHEbwI-wkBo2EIlvAMYLuqpVa0NKhmTgXvk54a4XwPmpK_arFDUuWVK8wtMyPBRhHrQgtbEs9WDFMGwOurYZ6fzolHRKZBStBv42rRMgYJiqvlk6gjz0wz5WlvNfPW--6l_KUimu9R-BGd3a_P06rM1dkDd7Ekd5wNqXJynj0hPuk4tYBlYmFuVVoTCgzeE0ZUhEK1IedtN9thBxt59sMpNYQ4nS1-tCsWLqyjDnMjwBEitDgodo_FpLpTY0Q7CqWFke30Wh30F6FlceQOfjJkUvlu8XxsUOm7SJUEJPVuTJnSg_Wzi1TyeuAMwOqz4RoQb3jbbimVy0?></g></svg>