<svg xmlns="http://www.w3.org/2000/svg" xmlns:xlink="http://www.w3.org/1999/xlink" contentStyleType="text/css" data-diagram-type="DESCRIPTION" height="183px" preserveAspectRatio="none" style="width:559px;height:183px;background:#0B1220;" version="1.1" viewBox="0 0 559 183" width="559px" zoomAndPan="magnify"><?plantuml 1.2026.4beta2?><defs/><g><rect fill="#0B1220" height="183" style="stroke:none;stroke-width:1;" width="559" x="0" y="0"/><!--cluster Config Module--><g class="cluster" data-qualified-name="Config Module" data-source-line="24" id="ent0003"><rect fill="#312E81" height="162" rx="2.5" ry="2.5" style="stroke:#64748B;stroke-width:1;" width="201.45" x="164.27" y="7"/><text fill="#E2E8F0" font-family="DejaVu Sans" font-size="14" font-weight="700" lengthAdjust="spacing" textLength="113.4766" x="208.2567" y="21.9951">Config Module</text></g><!--cluster Data Sources--><g class="cluster" data-qualified-name="Data Sources" data-source-line="28" id="ent0006"><rect fill="#0F3B3B" height="145" rx="2.5" ry="2.5" style="stroke:#64748B;stroke-width:1;" width="151.64" x="393.72" y="16"/><text fill="#E2E8F0" font-family="DejaVu Sans" font-size="14" font-weight="700" lengthAdjust="spacing" textLength="104.7813" x="417.1494" y="30.9951">Data Sources</text></g><!--entity UC_Manifest--><g class="entity" data-qualified-name="Config Module.UC_Manifest" data-source-line="25" id="ent0004"><ellipse cx="265.0032" cy="134.0006" fill="#4338CA" rx="83.3532" ry="19.0706" style="stroke:#F8FAFC;stroke-width:0.5;"/><text fill="#F8FAFC" font-family="DejaVu Sans" font-size="14" lengthAdjust="spacing" textLength="138.5166" x="195.7449" y="138.6491">Get Config Manifest</text></g><!--entity UC_GetCfg--><g class="entity" data-qualified-name="Config Module.UC_GetCfg" data-source-line="26" id="ent0005"><ellipse cx="264.9971" cy="60.9954" fill="#4338CA" rx="84.7271" ry="19.3454" style="stroke:#F8FAFC;stroke-width:0.5;"/><text fill="#F8FAFC" font-family="DejaVu Sans" font-size="14" lengthAdjust="spacing" textLength="141.6953" x="194.1494" y="65.6439">Get Config by Name</text></g><!--entity DB_CFG--><g class="entity" data-qualified-name="Data Sources.DB_CFG" data-source-line="29" id="ent0007"><ellipse cx="469.5406" cy="130.0036" fill="#115E59" rx="38.4506" ry="14.5236" style="stroke:#F8FAFC;stroke-width:0.5;"/><text fill="#F8FAFC" font-family="DejaVu Sans" font-size="14" lengthAdjust="spacing" textLength="50.1348" x="444.4732" y="134.6521">configs</text></g><!--entity DB_Redis--><g class="entity" data-qualified-name="Data Sources.DB_Redis" data-source-line="30" id="ent0008"><ellipse cx="469.5358" cy="66.0036" fill="#115E59" rx="59.8158" ry="14.5236" style="stroke:#F8FAFC;stroke-width:0.5;"/><text fill="#F8FAFC" font-family="DejaVu Sans" font-size="14" lengthAdjust="spacing" textLength="80.3496" x="429.3609" y="70.6521">redis cache</text></g><!--entity admin--><g class="entity" data-qualified-name="admin" data-source-line="23" id="ent0002"><ellipse cx="63.1348" cy="68.35" fill="#F1F1F1" rx="8" ry="8" style="stroke:#93C5FD;stroke-width:0.5;"/><path d="M63.1348,76.35 L63.1348,103.35 M50.1348,84.35 L76.1348,84.35 M63.1348,103.35 L50.1348,118.35 M63.1348,103.35 L76.1348,118.35" fill="none" style="stroke:#93C5FD;stroke-width:0.5;"/><text fill="#DBEAFE" font-family="DejaVu Sans" font-size="14" lengthAdjust="spacing" textLength="114.2695" x="6" y="132.8451">Admin / LiveOps</text></g><!--link admin to UC_Manifest--><g class="link" data-entity-1="ent0002" data-entity-2="ent0004" data-link-type="dependency" data-source-line="32" id="lnk9"><path d="M120.61,108.17 C144.85,112.54 167.4149,116.6072 192.5849,121.1372" fill="none" id="admin-to-UC_Manifest" style="stroke:#CBD5E1;stroke-width:1;"/><polygon fill="#CBD5E1" points="198.49,122.2,190.3408,116.6691,193.5691,121.3143,188.9238,124.5426,198.49,122.2" style="stroke:#CBD5E1;stroke-width:1;"/></g><!--link admin to UC_GetCfg--><g class="link" data-entity-1="ent0002" data-entity-2="ent0005" data-link-type="dependency" data-source-line="33" id="lnk10"><path d="M120.61,87.55 C144.73,83.08 167.1505,78.9338 192.2305,74.2838" fill="none" id="admin-to-UC_GetCfg" style="stroke:#CBD5E1;stroke-width:1;"/><polygon fill="#CBD5E1" points="198.13,73.19,188.5516,70.8977,193.2138,74.1015,190.01,78.7637,198.13,73.19" style="stroke:#CBD5E1;stroke-width:1;"/></g><!--link UC_Manifest to DB_CFG--><g class="link" data-entity-1="ent0004" data-entity-2="ent0007" data-link-type="dependency" data-source-line="34" id="lnk11"><path d="M348.38,132.37 C376.96,131.81 401.6312,131.3189 424.8312,130.8589" fill="none" id="UC_Manifest-to-DB_CFG" style="stroke:#CBD5E1;stroke-width:1;"/><polygon fill="#CBD5E1" points="430.83,130.74,421.7525,126.9192,425.831,130.8391,421.9111,134.9176,430.83,130.74" style="stroke:#CBD5E1;stroke-width:1;"/></g><!--link UC_Manifest to DB_Redis--><g class="link" data-entity-1="ent0004" data-entity-2="ent0008" data-link-type="dependency" data-source-line="35" id="lnk12"><path d="M313.74,118.08 C332.45,111.83 354.1,104.59 373.72,98 C393.49,91.36 409.8759,85.8412 427.7459,79.8012" fill="none" id="UC_Manifest-to-DB_Redis" style="stroke:#CBD5E1;stroke-width:1;"/><polygon fill="#CBD5E1" points="433.43,77.88,423.623,76.9724,428.6933,79.481,426.1847,84.5512,433.43,77.88" style="stroke:#CBD5E1;stroke-width:1;"/></g><!--link UC_GetCfg to DB_CFG--><g class="link" data-entity-1="ent0005" data-entity-2="ent0007" data-link-type="dependency" data-source-line="36" id="lnk13"><path d="M314.57,77.09 C333.1,83.27 354.41,90.41 373.72,97 C396.16,104.65 415.8574,111.5063 434.6974,118.1063" fill="none" id="UC_GetCfg-to-DB_CFG" style="stroke:#CBD5E1;stroke-width:1;"/><polygon fill="#CBD5E1" points="440.36,120.09,433.1886,113.3394,435.6412,118.4369,430.5436,120.8895,440.36,120.09" style="stroke:#CBD5E1;stroke-width:1;"/></g><!--link UC_GetCfg to DB_Redis--><g class="link" data-entity-1="ent0005" data-entity-2="ent0008" data-link-type="dependency" data-source-line="37" id="lnk14"><path d="M349.55,63.06 C369.71,63.56 384.8318,63.933 403.6018,64.393" fill="none" id="UC_GetCfg-to-DB_Redis" style="stroke:#CBD5E1;stroke-width:1;"/><polygon fill="#CBD5E1" points="409.6,64.54,400.7007,60.3207,404.6015,64.4175,400.5047,68.3183,409.6,64.54" style="stroke:#CBD5E1;stroke-width:1;"/></g><?plantuml-src TL5TJy8m57tlhxWPpqR6cC2BYOpeYn-9H5_DRNixggCbRQSnXl_k60mxnSUThtjELv4A42muNQu2IEr816qDO_vDcmqwN0D7yLOwMnjPsCew60nvEXeD8uLVeRGVsfIWiF8KCP8KrbMujYRSuvfWGQ_uNCCIZJ-jEfoWd2R48ycLS_RZG0ekSqeZSjCqn9AMuRCYs2r0KrPnZIC6NmnWRfqaTmYx64_6KzwWyVKHJTMGRQC45A5X_hXdcSYLxBib9rJKSzUU1FeJrzLKeH9z_n6R_txuL8rcsQH9PliwoPLSQmFdSAlVwM7Z4q0FkCFOp-Aai4Rf4kwih2jAO92bpRoqxTBrIcueGAT3enNvq8Oz5I_TDmp6MJOL-8-DVyBk3tUkXYbKUVHiuq8B30XBMpj1JUN1K6Kyu_q-eWtT3rhCNuhhcsPzcbC-YrMEfFOWKAoeKpwsKAVTilOruEpiCfxIH_TLMJnrn-pFdeBR6-ndP5_T1rljDm00?></g></svg>