<svg xmlns="http://www.w3.org/2000/svg" xmlns:xlink="http://www.w3.org/1999/xlink" contentStyleType="text/css" data-diagram-type="DESCRIPTION" height="602px" preserveAspectRatio="none" style="width:639px;height:602px;background:#0B1220;" version="1.1" viewBox="0 0 639 602" width="639px" zoomAndPan="magnify"><?plantuml 1.2026.4beta2?><defs/><g><rect fill="#0B1220" height="602" style="stroke:none;stroke-width:1;" width="639" x="0" y="0"/><!--cluster Progression Module--><g class="cluster" data-qualified-name="Progression Module" data-source-line="24" id="ent0003"><rect fill="#12324B" height="581" rx="2.5" ry="2.5" style="stroke:#64748B;stroke-width:1;" width="229.95" x="93.57" y="7"/><text fill="#E2E8F0" font-family="DejaVu Sans" font-size="14" font-weight="700" lengthAdjust="spacing" textLength="156.96" x="130.065" y="21.9951">Progression Module</text></g><!--cluster Persistence--><g class="cluster" data-qualified-name="Persistence" data-source-line="34" id="ent0012"><rect fill="#3F1D2E" height="308" rx="2.5" ry="2.5" style="stroke:#64748B;stroke-width:1;" width="274.06" x="351.52" y="105"/><text fill="#E2E8F0" font-family="DejaVu Sans" font-size="14" font-weight="700" lengthAdjust="spacing" textLength="92.0732" x="442.5134" y="119.9951">Persistence</text></g><!--entity UC_GetPlayer--><g class="entity" data-qualified-name="Progression Module.UC_GetPlayer" data-source-line="25" id="ent0004"><ellipse cx="208.5369" cy="555.0014" fill="#1C4A6E" rx="73.2569" ry="17.0514" style="stroke:#F8FAFC;stroke-width:0.5;"/><text fill="#F8FAFC" font-family="DejaVu Sans" font-size="14" lengthAdjust="spacing" textLength="114.4746" x="151.2996" y="559.6498">Get Player State</text></g><!--entity UC_UpdateProfile--><g class="entity" data-qualified-name="Progression Module.UC_UpdateProfile" data-source-line="26" id="ent0005"><ellipse cx="208.5423" cy="487.0005" fill="#1C4A6E" rx="67.2023" ry="15.8405" style="stroke:#F8FAFC;stroke-width:0.5;"/><text fill="#F8FAFC" font-family="DejaVu Sans" font-size="14" lengthAdjust="spacing" textLength="99.2373" x="158.9237" y="491.6489">Update Profile</text></g><!--entity UC_Tutorial--><g class="entity" data-qualified-name="Progression Module.UC_Tutorial" data-source-line="27" id="ent0006"><ellipse cx="208.5384" cy="413.9957" fill="#1C4A6E" rx="98.9784" ry="22.1957" style="stroke:#F8FAFC;stroke-width:0.5;"/><text fill="#F8FAFC" font-family="DejaVu Sans" font-size="14" lengthAdjust="spacing" textLength="173.8037" x="121.6366" y="418.6441">Update Tutorial Progress</text></g><!--entity UC_ViewQuests--><g class="entity" data-qualified-name="Progression Module.UC_ViewQuests" data-source-line="28" id="ent0007"><ellipse cx="208.541" cy="194.9982" fill="#1C4A6E" rx="62.441" ry="14.8882" style="stroke:#F8FAFC;stroke-width:0.5;"/><text fill="#F8FAFC" font-family="DejaVu Sans" font-size="14" lengthAdjust="spacing" textLength="86.5635" x="165.2593" y="199.6466">View Quests</text></g><!--entity UC_ClaimQuest--><g class="entity" data-qualified-name="Progression Module.UC_ClaimQuest" data-source-line="29" id="ent0008"><ellipse cx="208.5418" cy="263.9964" fill="#1C4A6E" rx="85.2818" ry="19.4564" style="stroke:#F8FAFC;stroke-width:0.5;"/><text fill="#F8FAFC" font-family="DejaVu Sans" font-size="14" lengthAdjust="spacing" textLength="142.9736" x="137.055" y="268.6448">Claim Quest Reward</text></g><!--entity UC_ClaimTrack--><g class="entity" data-qualified-name="Progression Module.UC_ClaimTrack" data-source-line="30" id="ent0009"><ellipse cx="208.5359" cy="338.0012" fill="#1C4A6E" rx="84.1559" ry="19.2312" style="stroke:#F8FAFC;stroke-width:0.5;"/><text fill="#F8FAFC" font-family="DejaVu Sans" font-size="14" lengthAdjust="spacing" textLength="140.376" x="138.3479" y="342.6496">Claim Track Reward</text></g><!--entity UC_Leaderboard--><g class="entity" data-qualified-name="Progression Module.UC_Leaderboard" data-source-line="31" id="ent0010"><ellipse cx="208.5354" cy="127.0011" fill="#1C4A6E" rx="78.4054" ry="18.0811" style="stroke:#F8FAFC;stroke-width:0.5;"/><text fill="#F8FAFC" font-family="DejaVu Sans" font-size="14" lengthAdjust="spacing" textLength="126.9023" x="145.0842" y="131.6495">View Leaderboard</text></g><!--entity UC_MyRank--><g class="entity" data-qualified-name="Progression Module.UC_MyRank" data-source-line="32" id="ent0011"><ellipse cx="208.5369" cy="58.0014" fill="#1C4A6E" rx="66.7569" ry="15.7514" style="stroke:#F8FAFC;stroke-width:0.5;"/><text fill="#F8FAFC" font-family="DejaVu Sans" font-size="14" lengthAdjust="spacing" textLength="98.082" x="159.4959" y="62.6498">View My Rank</text></g><!--entity DB_P--><g class="entity" data-qualified-name="Persistence.DB_P" data-source-line="35" id="ent0013"><ellipse cx="488.5472" cy="382.0036" fill="#5B233F" rx="39.2772" ry="14.5236" style="stroke:#F8FAFC;stroke-width:0.5;"/><text fill="#F8FAFC" font-family="DejaVu Sans" font-size="14" lengthAdjust="spacing" textLength="51.3037" x="462.8953" y="386.6521">players</text></g><!--entity DB_PQ--><g class="entity" data-qualified-name="Persistence.DB_PQ" data-source-line="36" id="ent0014"><ellipse cx="488.548" cy="229.0036" fill="#5B233F" rx="66.518" ry="15.7036" style="stroke:#F8FAFC;stroke-width:0.5;"/><text fill="#F8FAFC" font-family="DejaVu Sans" font-size="14" lengthAdjust="spacing" textLength="97.46" x="439.818" y="233.652">player_quests</text></g><!--entity DB_PQR--><g class="entity" data-qualified-name="Persistence.DB_PQR" data-source-line="37" id="ent0015"><ellipse cx="488.5511" cy="305.9962" fill="#5B233F" rx="121.0311" ry="26.6062" style="stroke:#F8FAFC;stroke-width:0.5;"/><text fill="#F8FAFC" font-family="DejaVu Sans" font-size="14" lengthAdjust="spacing" textLength="221.5527" x="377.7747" y="310.6446">player_quest_progress_rewards</text></g><!--entity DB_LBS--><g class="entity" data-qualified-name="Persistence.DB_LBS" data-source-line="38" id="ent0016"><ellipse cx="488.55" cy="159" fill="#5B233F" rx="82.8" ry="18.96" style="stroke:#F8FAFC;stroke-width:0.5;"/><text fill="#F8FAFC" font-family="DejaVu Sans" font-size="14" lengthAdjust="spacing" textLength="137.2314" x="419.9343" y="163.6484">leaderboard_scores</text></g><!--entity player--><g class="entity" data-qualified-name="player" data-source-line="23" id="ent0002"><ellipse cx="27.7827" cy="271.35" fill="#F1F1F1" rx="8" ry="8" style="stroke:#93C5FD;stroke-width:0.5;"/><path d="M27.7827,279.35 L27.7827,306.35 M14.7827,287.35 L40.7827,287.35 M27.7827,306.35 L14.7827,321.35 M27.7827,306.35 L40.7827,321.35" fill="none" style="stroke:#93C5FD;stroke-width:0.5;"/><text fill="#DBEAFE" font-family="DejaVu Sans" font-size="14" lengthAdjust="spacing" textLength="43.5654" x="6" y="335.8451">Player</text></g><!--link player to UC_GetPlayer--><g class="link" data-entity-1="ent0002" data-entity-2="ent0004" data-link-type="dependency" data-source-line="40" id="lnk17"><path d="M34.09,339.36 C42.54,395.06 60.69,494.47 85.57,520 C100.02,534.83 114.4824,542.0217 134.3724,547.0417" fill="none" id="player-to-UC_GetPlayer" style="stroke:#CBD5E1;stroke-width:1;"/><polygon fill="#CBD5E1" points="140.19,548.51,132.4425,542.4292,135.342,547.2864,130.4848,550.186,140.19,548.51" style="stroke:#CBD5E1;stroke-width:1;"/></g><!--link player to UC_UpdateProfile--><g class="link" data-entity-1="ent0002" data-entity-2="ent0005" data-link-type="dependency" data-source-line="41" id="lnk18"><path d="M33.12,339.49 C39.07,374.23 53.02,424.3 85.57,454 C101.77,468.79 118.0686,475.7777 139.0486,480.3677" fill="none" id="player-to-UC_UpdateProfile" style="stroke:#CBD5E1;stroke-width:1;"/><polygon fill="#CBD5E1" points="144.91,481.65,136.9729,475.8189,140.0255,480.5814,135.2631,483.6341,144.91,481.65" style="stroke:#CBD5E1;stroke-width:1;"/></g><!--link player to UC_Tutorial--><g class="link" data-entity-1="ent0002" data-entity-2="ent0006" data-link-type="dependency" data-source-line="42" id="lnk19"><path d="M49.96,337.28 C59.38,350.74 71.52,365.13 85.57,375 C100.3,385.36 112.2236,391.1856 129.4236,396.8756" fill="none" id="player-to-UC_Tutorial" style="stroke:#CBD5E1;stroke-width:1;"/><polygon fill="#CBD5E1" points="135.12,398.76,127.8317,392.1357,130.373,397.1896,125.3191,399.7309,135.12,398.76" style="stroke:#CBD5E1;stroke-width:1;"/></g><!--link player to UC_ViewQuests--><g class="link" data-entity-1="ent0002" data-entity-2="ent0007" data-link-type="dependency" data-source-line="43" id="lnk20"><path d="M49.96,263.96 C59.31,250.55 71.4,236.41 85.57,227 C105.17,213.98 123.9465,207.4754 145.9465,202.8854" fill="none" id="player-to-UC_ViewQuests" style="stroke:#CBD5E1;stroke-width:1;"/><polygon fill="#CBD5E1" points="151.82,201.66,142.1928,199.5825,146.9254,202.6812,143.8267,207.4138,151.82,201.66" style="stroke:#CBD5E1;stroke-width:1;"/></g><!--link player to UC_ClaimQuest--><g class="link" data-entity-1="ent0002" data-entity-2="ent0008" data-link-type="dependency" data-source-line="44" id="lnk21"><path d="M49.99,296.61 C73.11,291.82 105.3446,285.1565 138.2846,278.3365" fill="none" id="player-to-UC_ClaimQuest" style="stroke:#CBD5E1;stroke-width:1;"/><polygon fill="#CBD5E1" points="144.16,277.12,134.5359,275.0278,139.2638,278.1337,136.1579,282.8616,144.16,277.12" style="stroke:#CBD5E1;stroke-width:1;"/></g><!--link player to UC_ClaimTrack--><g class="link" data-entity-1="ent0002" data-entity-2="ent0009" data-link-type="dependency" data-source-line="45" id="lnk22"><path d="M49.99,305.39 C73.3,310.21 105.9544,316.9748 139.0744,323.8248" fill="none" id="player-to-UC_ClaimTrack" style="stroke:#CBD5E1;stroke-width:1;"/><polygon fill="#CBD5E1" points="144.95,325.04,136.9467,319.3001,140.0536,324.0273,135.3264,327.1343,144.95,325.04" style="stroke:#CBD5E1;stroke-width:1;"/></g><!--link player to UC_Leaderboard--><g class="link" data-entity-1="ent0002" data-entity-2="ent0010" data-link-type="dependency" data-source-line="46" id="lnk23"><path d="M35.22,262.38 C42.36,231.36 56.9,188.85 85.57,163 C100.49,149.55 114.4249,142.7014 133.6549,137.4114" fill="none" id="player-to-UC_Leaderboard" style="stroke:#CBD5E1;stroke-width:1;"/><polygon fill="#CBD5E1" points="139.44,135.82,129.7014,134.3504,134.6191,137.1462,131.8233,142.0639,139.44,135.82" style="stroke:#CBD5E1;stroke-width:1;"/></g><!--link player to UC_MyRank--><g class="link" data-entity-1="ent0002" data-entity-2="ent0011" data-link-type="dependency" data-source-line="47" id="lnk24"><path d="M28.29,262.44 C29.85,215.48 39.77,136.8 85.57,91 C101.08,75.49 117.213,68.3164 138.273,63.8064" fill="none" id="player-to-UC_MyRank" style="stroke:#CBD5E1;stroke-width:1;"/><polygon fill="#CBD5E1" points="144.14,62.55,134.5019,60.5233,139.2509,63.597,136.1771,68.3459,144.14,62.55" style="stroke:#CBD5E1;stroke-width:1;"/></g><!--link UC_GetPlayer to DB_P--><g class="link" data-entity-1="ent0004" data-entity-2="ent0013" data-link-type="dependency" data-source-line="48" id="lnk25"><path d="M266.55,544.21 C287.77,538.79 311.53,530.97 331.52,520 C393.35,486.08 447.578,428.2933 471.788,400.5133" fill="none" id="UC_GetPlayer-to-DB_P" style="stroke:#CBD5E1;stroke-width:1;"/><polygon fill="#CBD5E1" points="475.73,395.99,466.8014,400.147,472.445,399.7594,472.8325,405.403,475.73,395.99" style="stroke:#CBD5E1;stroke-width:1;"/></g><!--link UC_UpdateProfile to DB_P--><g class="link" data-entity-1="ent0005" data-entity-2="ent0013" data-link-type="dependency" data-source-line="49" id="lnk26"><path d="M257.92,475.9 C280.55,470.21 307.7,462.65 331.52,454 C380.32,436.28 429.5252,412.1358 459.4652,396.7258" fill="none" id="UC_UpdateProfile-to-DB_P" style="stroke:#CBD5E1;stroke-width:1;"/><polygon fill="#CBD5E1" points="464.8,393.98,454.9672,394.5422,460.3543,396.2682,458.6283,401.6553,464.8,393.98" style="stroke:#CBD5E1;stroke-width:1;"/></g><!--link UC_Tutorial to DB_P--><g class="link" data-entity-1="ent0006" data-entity-2="ent0013" data-link-type="dependency" data-source-line="50" id="lnk27"><path d="M297.51,403.88 C349.21,397.92 405.8893,391.3956 444.7493,386.9256" fill="none" id="UC_Tutorial-to-DB_P" style="stroke:#CBD5E1;stroke-width:1;"/><polygon fill="#CBD5E1" points="450.71,386.24,441.3119,383.2947,445.7428,386.8114,442.2261,391.2423,450.71,386.24" style="stroke:#CBD5E1;stroke-width:1;"/></g><!--link UC_ViewQuests to DB_PQ--><g class="link" data-entity-1="ent0007" data-entity-2="ent0014" data-link-type="dependency" data-source-line="51" id="lnk28"><path d="M264.8,201.76 C312.15,207.55 374.2044,215.1415 422.6044,221.0615" fill="none" id="UC_ViewQuests-to-DB_PQ" style="stroke:#CBD5E1;stroke-width:1;"/><polygon fill="#CBD5E1" points="428.56,221.79,420.1122,216.7269,423.597,221.183,419.1409,224.6677,428.56,221.79" style="stroke:#CBD5E1;stroke-width:1;"/></g><!--link UC_ClaimQuest to DB_PQ--><g class="link" data-entity-1="ent0008" data-entity-2="ent0014" data-link-type="dependency" data-source-line="52" id="lnk29"><path d="M284.05,254.62 C329.56,248.89 380.9871,242.4203 423.1971,237.1003" fill="none" id="UC_ClaimQuest-to-DB_PQ" style="stroke:#CBD5E1;stroke-width:1;"/><polygon fill="#CBD5E1" points="429.15,236.35,419.7205,233.5068,424.1892,236.9752,420.7208,241.444,429.15,236.35" style="stroke:#CBD5E1;stroke-width:1;"/></g><!--link UC_ClaimTrack to DB_PQR--><g class="link" data-entity-1="ent0009" data-entity-2="ent0015" data-link-type="dependency" data-source-line="53" id="lnk30"><path d="M284.41,329.38 C313.92,325.99 342.4094,322.7061 374.4694,319.0161" fill="none" id="UC_ClaimTrack-to-DB_PQR" style="stroke:#CBD5E1;stroke-width:1;"/><polygon fill="#CBD5E1" points="380.43,318.33,371.0317,315.3853,375.4628,318.9017,371.9464,323.3328,380.43,318.33" style="stroke:#CBD5E1;stroke-width:1;"/></g><!--link UC_ClaimQuest to DB_P--><g class="link" data-entity-1="ent0008" data-entity-2="ent0013" data-link-type="dependency" data-source-line="54" id="lnk31"><path d="M283.75,273.48 C301.42,278.98 318.82,287.58 331.52,301 C346.94,317.28 327.5,334.32 343.52,350 C371.35,377.23 410.9108,383.3138 443.3308,383.8338" fill="none" id="UC_ClaimQuest-to-DB_P" style="stroke:#CBD5E1;stroke-width:1;"/><polygon fill="#CBD5E1" points="449.33,383.93,440.3953,379.7862,444.3306,383.8498,440.267,387.7851,449.33,383.93" style="stroke:#CBD5E1;stroke-width:1;"/></g><!--link UC_ClaimTrack to DB_P--><g class="link" data-entity-1="ent0009" data-entity-2="ent0013" data-link-type="dependency" data-source-line="55" id="lnk32"><path d="M278.62,348.93 C333.62,357.64 402.4436,368.5328 446.0136,375.4228" fill="none" id="UC_ClaimTrack-to-DB_P" style="stroke:#CBD5E1;stroke-width:1;"/><polygon fill="#CBD5E1" points="451.94,376.36,443.6752,371.0033,447.0014,375.579,442.4257,378.9051,451.94,376.36" style="stroke:#CBD5E1;stroke-width:1;"/></g><!--link UC_Leaderboard to DB_LBS--><g class="link" data-entity-1="ent0010" data-entity-2="ent0016" data-link-type="dependency" data-source-line="56" id="lnk33"><path d="M279.34,135.03 C320.35,139.75 366.1994,145.0336 407.8794,149.8336" fill="none" id="UC_Leaderboard-to-DB_LBS" style="stroke:#CBD5E1;stroke-width:1;"/><polygon fill="#CBD5E1" points="413.84,150.52,405.3567,145.5166,408.8728,149.948,404.4415,153.4641,413.84,150.52" style="stroke:#CBD5E1;stroke-width:1;"/></g><!--link UC_MyRank to DB_LBS--><g class="link" data-entity-1="ent0011" data-entity-2="ent0016" data-link-type="dependency" data-source-line="57" id="lnk34"><path d="M257.25,69.18 C279.98,74.94 307.41,82.53 331.52,91 C373.76,105.83 415.224,124.3589 446.474,139.1089" fill="none" id="UC_MyRank-to-DB_LBS" style="stroke:#CBD5E1;stroke-width:1;"/><polygon fill="#CBD5E1" points="451.9,141.67,445.4684,134.2111,447.3784,139.5358,442.0537,141.4457,451.9,141.67" style="stroke:#CBD5E1;stroke-width:1;"/></g><?plantuml-src XLDBR-8m4BxxLrXmhWG957gfj53jNigAHzjhD8d7QOg9MTiHGYl--phavOImlS7tc1dFV1783JMIgYJ-D9Gb2YEJo9GGlK_I8oWuq12YVQnabhAb55BHuIWSUzx8KUXFOFAKf37b83Gw34CEcJ0_PMf-mm7f2tx1HqPtaEf-LTa2fpZ3q97yK4gUIZ8AsHJ73dcq4qACEtCMIFCNG1eBTumQety9fGkf6AgosEDaDfc75dMxUpZd8t9nAa1aB7FZVlAZAMTjDmiHEBRScSO8T4ztFkV0exQ_nXRTnO-vz-JFR6LIZBCMS4P5GTFZzHTftZbOAnahrDeUawuaomGER07FzoRXTOngfC4lD5MXdG5ZPRRU-pAmU0aFnz447j4rlH-PbLBRX2UYjXHe2Vx7zfRPwHCGj1goAb0JFTwF14zqaw4sjJo72gJFi1IG70e7tU895AjyLwOWxlhUbDr-dwyWxWtuYc2l6qh7vK1tRQiptKAwhoohS_wlLbzQXqMb4sqmZVAB-dpCF6nVj0X3iQMNHR2cmsde-Jw_rGH_cdtcoirtqk1ONYnGryqurcsVLpHl3tGahRCol2vsjU52YXxquU6v5RqEtifNXwkYqu6RY7I89WDznFN87SAvOuSfpaLQ7qrEvNiXDz-5ozI1Tq4drXMy8UtOtk95B6jyUyTmHqywEIrnUoJInB41_m40?></g></svg>