<svg xmlns="http://www.w3.org/2000/svg" xmlns:xlink="http://www.w3.org/1999/xlink" contentStyleType="text/css" data-diagram-type="DESCRIPTION" height="361px" preserveAspectRatio="none" style="width:578px;height:361px;background:#0B1220;" version="1.1" viewBox="0 0 578 361" width="578px" zoomAndPan="magnify"><?plantuml 1.2026.4beta2?><defs/><g><rect fill="#0B1220" height="361" style="stroke:none;stroke-width:1;" width="578" x="0" y="0"/><!--cluster Auth Module--><g class="cluster" data-qualified-name="Auth Module" data-source-line="24" id="ent0003"><rect fill="#102A43" height="275" rx="2.5" ry="2.5" style="stroke:#64748B;stroke-width:1;" width="167.74" x="96.57" y="11"/><text fill="#E2E8F0" font-family="DejaVu Sans" font-size="14" font-weight="700" lengthAdjust="spacing" textLength="100.167" x="130.3565" y="25.9951">Auth Module</text></g><!--cluster Security--><g class="cluster" data-qualified-name="Security" data-source-line="30" id="ent0008"><rect fill="#3A2E12" height="89" rx="2.5" ry="2.5" style="stroke:#64748B;stroke-width:1;" width="193.66" x="358.11" y="258"/><text fill="#E2E8F0" font-family="DejaVu Sans" font-size="14" font-weight="700" lengthAdjust="spacing" textLength="65.3652" x="422.2574" y="272.9951">Security</text></g><!--cluster Persistence--><g class="cluster" data-qualified-name="Persistence" data-source-line="33" id="ent0010"><rect fill="#3F1D2E" height="227" rx="2.5" ry="2.5" style="stroke:#64748B;stroke-width:1;" width="219.26" x="345.31" y="7"/><text fill="#E2E8F0" font-family="DejaVu Sans" font-size="14" font-weight="700" lengthAdjust="spacing" textLength="92.0732" x="408.9034" y="21.9951">Persistence</text></g><!--entity UC_Register--><g class="entity" data-qualified-name="Auth Module.UC_Register" data-source-line="25" id="ent0004"><ellipse cx="180.4428" cy="61.0036" fill="#1F3B57" rx="44.2028" ry="14.5236" style="stroke:#F8FAFC;stroke-width:0.5;"/><text fill="#F8FAFC" font-family="DejaVu Sans" font-size="14" lengthAdjust="spacing" textLength="58.2695" x="151.308" y="65.6521">Register</text></g><!--entity UC_Login--><g class="entity" data-qualified-name="Auth Module.UC_Login" data-source-line="26" id="ent0005"><ellipse cx="180.4404" cy="125.0036" fill="#1F3B57" rx="29.8804" ry="14.5236" style="stroke:#F8FAFC;stroke-width:0.5;"/><text fill="#F8FAFC" font-family="DejaVu Sans" font-size="14" lengthAdjust="spacing" textLength="38.0146" x="161.4331" y="129.6521">Login</text></g><!--entity UC_Refresh--><g class="entity" data-qualified-name="Auth Module.UC_Refresh" data-source-line="27" id="ent0006"><ellipse cx="180.4429" cy="190.0046" fill="#1F3B57" rx="67.8729" ry="15.9746" style="stroke:#F8FAFC;stroke-width:0.5;"/><text fill="#F8FAFC" font-family="DejaVu Sans" font-size="14" lengthAdjust="spacing" textLength="100.9668" x="129.9595" y="194.653">Refresh Token</text></g><!--entity UC_Logout--><g class="entity" data-qualified-name="Auth Module.UC_Logout" data-source-line="28" id="ent0007"><ellipse cx="180.4382" cy="255.0036" fill="#1F3B57" rx="37.0682" ry="14.5236" style="stroke:#F8FAFC;stroke-width:0.5;"/><text fill="#F8FAFC" font-family="DejaVu Sans" font-size="14" lengthAdjust="spacing" textLength="48.1797" x="156.3483" y="259.6521">Logout</text></g><!--entity UC_Guard--><g class="entity" data-qualified-name="Security.UC_Guard" data-source-line="31" id="ent0009"><ellipse cx="454.9439" cy="311.9968" fill="#5A4718" rx="80.8339" ry="18.5668" style="stroke:#F8FAFC;stroke-width:0.5;"/><text fill="#F8FAFC" font-family="DejaVu Sans" font-size="14" lengthAdjust="spacing" textLength="132.6377" x="388.625" y="316.6452">JWT Guard + Roles</text></g><!--entity DB_User--><g class="entity" data-qualified-name="Persistence.DB_User" data-source-line="34" id="ent0011"><ellipse cx="454.9395" cy="57.9959" fill="#5B233F" rx="67.3795" ry="15.8759" style="stroke:#F8FAFC;stroke-width:0.5;"/><text fill="#F8FAFC" font-family="DejaVu Sans" font-size="14" lengthAdjust="spacing" textLength="99.6953" x="405.0918" y="62.6443">accounts/User</text></g><!--entity DB_Session--><g class="entity" data-qualified-name="Persistence.DB_Session" data-source-line="35" id="ent0012"><ellipse cx="454.9388" cy="196.9958" fill="#5B233F" rx="93.6288" ry="21.1258" style="stroke:#F8FAFC;stroke-width:0.5;"/><text fill="#F8FAFC" font-family="DejaVu Sans" font-size="14" lengthAdjust="spacing" textLength="161.9092" x="373.9842" y="201.6442">refresh_tokens/Session</text></g><!--entity DB_Player--><g class="entity" data-qualified-name="Persistence.DB_Player" data-source-line="36" id="ent0013"><ellipse cx="454.9371" cy="124.9974" fill="#5B233F" rx="67.3371" ry="15.8674" style="stroke:#F8FAFC;stroke-width:0.5;"/><text fill="#F8FAFC" font-family="DejaVu Sans" font-size="14" lengthAdjust="spacing" textLength="99.5859" x="405.1442" y="129.6459">players/Player</text></g><!--entity player--><g class="entity" data-qualified-name="player" data-source-line="23" id="ent0002"><ellipse cx="27.7827" cy="134.35" fill="#F1F1F1" rx="8" ry="8" style="stroke:#93C5FD;stroke-width:0.5;"/><path d="M27.7827,142.35 L27.7827,169.35 M14.7827,150.35 L40.7827,150.35 M27.7827,169.35 L14.7827,184.35 M27.7827,169.35 L40.7827,184.35" fill="none" style="stroke:#93C5FD;stroke-width:0.5;"/><text fill="#DBEAFE" font-family="DejaVu Sans" font-size="14" lengthAdjust="spacing" textLength="43.5654" x="6" y="198.8451">Player</text></g><!--link player to UC_Register--><g class="link" data-entity-1="ent0002" data-entity-2="ent0004" data-link-type="dependency" data-source-line="38" id="lnk14"><path d="M49.88,131.98 C60.18,118.4 73.59,103.35 88.57,93 C104.8,81.78 119.6127,75.7549 137.0727,70.7449" fill="none" id="player-to-UC_Register" style="stroke:#CBD5E1;stroke-width:1;"/><polygon fill="#CBD5E1" points="142.84,69.09,133.0858,67.7275,138.0339,70.4691,135.2923,75.4172,142.84,69.09" style="stroke:#CBD5E1;stroke-width:1;"/></g><!--link player to UC_Login--><g class="link" data-entity-1="ent0002" data-entity-2="ent0005" data-link-type="dependency" data-source-line="39" id="lnk15"><path d="M50.05,158.49 C77.22,151.46 118.4214,140.7933 147.6714,133.2233" fill="none" id="player-to-UC_Login" style="stroke:#CBD5E1;stroke-width:1;"/><polygon fill="#CBD5E1" points="153.48,131.72,143.7649,130.1025,148.6395,132.9727,145.7693,137.8474,153.48,131.72" style="stroke:#CBD5E1;stroke-width:1;"/></g><!--link player to UC_Refresh--><g class="link" data-entity-1="ent0002" data-entity-2="ent0006" data-link-type="dependency" data-source-line="40" id="lnk16"><path d="M50.05,167.67 C69.35,171 92.7574,175.0399 118.6074,179.4999" fill="none" id="player-to-UC_Refresh" style="stroke:#CBD5E1;stroke-width:1;"/><polygon fill="#CBD5E1" points="124.52,180.52,116.3311,175.048,119.5928,179.6699,114.971,182.9316,124.52,180.52" style="stroke:#CBD5E1;stroke-width:1;"/></g><!--link player to UC_Logout--><g class="link" data-entity-1="ent0002" data-entity-2="ent0007" data-link-type="dependency" data-source-line="41" id="lnk17"><path d="M50,189.59 C60.6,201.08 74.22,214.03 88.57,223 C106.86,234.44 124.0163,240.8376 142.2663,245.9976" fill="none" id="player-to-UC_Logout" style="stroke:#CBD5E1;stroke-width:1;"/><polygon fill="#CBD5E1" points="148.04,247.63,140.4678,241.3322,143.2286,246.2696,138.2912,249.0304,148.04,247.63" style="stroke:#CBD5E1;stroke-width:1;"/></g><!--link UC_Logout to UC_Guard--><g class="link" data-entity-1="ent0007" data-entity-2="ent0009" data-link-type="dependency" data-source-line="42" id="lnk18"><path d="M204.82,266.33 C224.49,275.34 253.6,287.48 280.31,294 C310.93,301.48 339.3517,305.3407 369.4017,307.9007" fill="none" id="UC_Logout-to-UC_Guard" style="stroke:#CBD5E1;stroke-width:1;"/><polygon fill="#CBD5E1" points="375.38,308.41,366.752,303.6605,370.398,307.9856,366.0729,311.6316,375.38,308.41" style="stroke:#CBD5E1;stroke-width:1;"/><text fill="#E5E7EB" font-family="DejaVu Sans" font-size="13" lengthAdjust="spacing" textLength="47.0996" x="281.31" y="290.0669">include</text></g><!--link UC_Register to DB_User--><g class="link" data-entity-1="ent0004" data-entity-2="ent0011" data-link-type="dependency" data-source-line="43" id="lnk19"><path d="M224.92,60.52 C268.64,60.04 330.6504,59.3565 381.2104,58.7965" fill="none" id="UC_Register-to-DB_User" style="stroke:#CBD5E1;stroke-width:1;"/><polygon fill="#CBD5E1" points="387.21,58.73,378.1663,54.8299,382.2103,58.7854,378.2549,62.8294,387.21,58.73" style="stroke:#CBD5E1;stroke-width:1;"/></g><!--link UC_Login to DB_User--><g class="link" data-entity-1="ent0005" data-entity-2="ent0011" data-link-type="dependency" data-source-line="44" id="lnk20"><path d="M207.57,118.58 C253.53,107.28 343.5836,85.1329 401.2436,70.9529" fill="none" id="UC_Login-to-DB_User" style="stroke:#CBD5E1;stroke-width:1;"/><polygon fill="#CBD5E1" points="407.07,69.52,397.3752,67.785,402.2147,70.714,399.2856,75.5535,407.07,69.52" style="stroke:#CBD5E1;stroke-width:1;"/></g><!--link UC_Login to DB_Session--><g class="link" data-entity-1="ent0005" data-entity-2="ent0012" data-link-type="dependency" data-source-line="45" id="lnk21"><path d="M207.07,131.77 C249.21,142.91 328.4291,163.8371 386.8191,179.2671" fill="none" id="UC_Login-to-DB_Session" style="stroke:#CBD5E1;stroke-width:1;"/><polygon fill="#CBD5E1" points="392.62,180.8,384.9406,174.6334,387.7859,179.5226,382.8967,182.3679,392.62,180.8" style="stroke:#CBD5E1;stroke-width:1;"/></g><!--link UC_Login to DB_Player--><g class="link" data-entity-1="ent0005" data-entity-2="ent0013" data-link-type="dependency" data-source-line="46" id="lnk22"><path d="M210.6,125 C252.48,125 324.81,125 381.31,125" fill="none" id="UC_Login-to-DB_Player" style="stroke:#CBD5E1;stroke-width:1;"/><polygon fill="#CBD5E1" points="387.31,125,378.31,121,382.31,125,378.31,129,387.31,125" style="stroke:#CBD5E1;stroke-width:1;"/></g><!--link UC_Refresh to DB_Session--><g class="link" data-entity-1="ent0006" data-entity-2="ent0012" data-link-type="dependency" data-source-line="47" id="lnk23"><path d="M248.1,191.71 C282.21,192.59 318.282,193.5168 355.482,194.4668" fill="none" id="UC_Refresh-to-DB_Session" style="stroke:#CBD5E1;stroke-width:1;"/><polygon fill="#CBD5E1" points="361.48,194.62,352.5851,190.3915,356.4816,194.4924,352.3808,198.3889,361.48,194.62" style="stroke:#CBD5E1;stroke-width:1;"/></g><!--link UC_Logout to DB_Session--><g class="link" data-entity-1="ent0007" data-entity-2="ent0012" data-link-type="dependency" data-source-line="48" id="lnk24"><path d="M213.77,248.12 C255.85,239.16 324.6314,224.5187 379.5714,212.8287" fill="none" id="UC_Logout-to-DB_Session" style="stroke:#CBD5E1;stroke-width:1;"/><polygon fill="#CBD5E1" points="385.44,211.58,375.8046,209.5407,380.5495,212.6206,377.4695,217.3655,385.44,211.58" style="stroke:#CBD5E1;stroke-width:1;"/></g><?plantuml-src VLDDRzim3BthLn3fSIWIs_6IxZ2WQR41mpOKIRiT0rgY72-k54WoYc38Vv_ybSYDiPj9llV8HyebIGTEWododGDH6EAkq8enko_K0Gs-GePydnjTAV6WIstWPfP5SJmB47Q7GhyLAWU9fQMW8aXYLRelMhcV-4hmI7_mLmKRL7OSrRMWb1QK1P1xO_HRL-IPI2aAYWS_8UQqSSUIe7Q0AY_3CSuv-Ci0Lje8CftOn_bYlinyDkmUqrBEs2bGGEvyvOfzb_1KYY5RP8II1kpA4aSxqbqk9Ke-v9zpg_UBZsHybooyCcl7UIhnI0RGmg7vOXUVa_lAxU275bL94y-SnJXFclxzB9CrvOLrP2QrmCl3je_hFacMBaBiTvqNgWSsmHXgJTAGtS6ptfEwoBR9SLLTkK3MHsVSANIp8LwPmXszbGHZYkAXbM-_d-5hXKR01rZhacolsIPlKfmlekLGyecChVqgNYyeaP68QQYAdFlbEpjziTsM7bVR-jiBPd6Io11iMfjRLtktqmrPw_-ZdjM5OyJsT7RQ7hCdTAVjyIVMmk3szdDugtVfvZ9Nq6QmQwHVDhkilSkt2_i4XU9b9OY5xwA6T1jWvsVmlsJd-YhVccF1unWbz6DT2ly0?></g></svg>