<svg xmlns="http://www.w3.org/2000/svg" xmlns:xlink="http://www.w3.org/1999/xlink" contentStyleType="text/css" data-diagram-type="DESCRIPTION" height="365px" preserveAspectRatio="none" style="width:573px;height:365px;background:#0B1220;" version="1.1" viewBox="0 0 573 365" width="573px" zoomAndPan="magnify"><?plantuml 1.2026.4beta2?><defs/><g><rect fill="#0B1220" height="365" style="stroke:none;stroke-width:1;" width="573" x="0" y="0"/><!--cluster Inventory / Gacha Module--><g class="cluster" data-qualified-name="Inventory . Gacha Module" data-source-line="24" id="ent0003"><rect fill="#4A2B0F" height="344" rx="2.5" ry="2.5" style="stroke:#64748B;stroke-width:1;" width="217.27" x="93.57" y="7"/><text fill="#E2E8F0" font-family="DejaVu Sans" font-size="14" font-weight="700" lengthAdjust="spacing" textLength="202.3232" x="101.0434" y="21.9951">Inventory / Gacha Module</text></g><!--cluster Persistence--><g class="cluster" data-qualified-name="Persistence" data-source-line="31" id="ent0009"><rect fill="#3F1D2E" height="297" rx="2.5" ry="2.5" style="stroke:#64748B;stroke-width:1;" width="220.73" x="338.84" y="7"/><text fill="#E2E8F0" font-family="DejaVu Sans" font-size="14" font-weight="700" lengthAdjust="spacing" textLength="92.0732" x="403.1684" y="21.9951">Persistence</text></g><!--entity UC_GetInv--><g class="entity" data-qualified-name="Inventory . Gacha Module.UC_GetInv" data-source-line="25" id="ent0004"><ellipse cx="202.2029" cy="255.0026" fill="#7A4312" rx="66.0629" ry="15.6126" style="stroke:#F8FAFC;stroke-width:0.5;"/><text fill="#F8FAFC" font-family="DejaVu Sans" font-size="14" lengthAdjust="spacing" textLength="96.2705" x="154.0676" y="259.651">Get Inventory</text></g><!--entity UC_UpgradeHero--><g class="entity" data-qualified-name="Inventory . Gacha Module.UC_UpgradeHero" data-source-line="26" id="ent0005"><ellipse cx="202.1961" cy="188.9972" fill="#7A4312" rx="66.6361" ry="15.7272" style="stroke:#F8FAFC;stroke-width:0.5;"/><text fill="#F8FAFC" font-family="DejaVu Sans" font-size="14" lengthAdjust="spacing" textLength="97.7676" x="153.3123" y="193.6457">Upgrade Hero</text></g><!--entity UC_EvolveHero--><g class="entity" data-qualified-name="Inventory . Gacha Module.UC_EvolveHero" data-source-line="27" id="ent0006"><ellipse cx="202.1968" cy="320.0014" fill="#7A4312" rx="61.6568" ry="14.7314" style="stroke:#F8FAFC;stroke-width:0.5;"/><text fill="#F8FAFC" font-family="DejaVu Sans" font-size="14" lengthAdjust="spacing" textLength="84.3965" x="159.9985" y="324.6498">Evolve Hero</text></g><!--entity UC_BuySkill--><g class="entity" data-qualified-name="Inventory . Gacha Module.UC_BuySkill" data-source-line="28" id="ent0007"><ellipse cx="202.2041" cy="122.9968" fill="#7A4312" rx="66.4341" ry="15.6868" style="stroke:#F8FAFC;stroke-width:0.5;"/><text fill="#F8FAFC" font-family="DejaVu Sans" font-size="14" lengthAdjust="spacing" textLength="97.2412" x="153.5835" y="127.6453">Purchase Skill</text></g><!--entity UC_UpgradeSkill--><g class="entity" data-qualified-name="Inventory . Gacha Module.UC_UpgradeSkill" data-source-line="29" id="ent0008"><ellipse cx="202.202" cy="57.0024" fill="#7A4312" rx="64.812" ry="15.3624" style="stroke:#F8FAFC;stroke-width:0.5;"/><text fill="#F8FAFC" font-family="DejaVu Sans" font-size="14" lengthAdjust="spacing" textLength="92.9688" x="155.7176" y="61.6508">Upgrade Skill</text></g><!--entity DB_PII--><g class="entity" data-qualified-name="Persistence.DB_PII" data-source-line="32" id="ent0010"><ellipse cx="449.2084" cy="202.0037" fill="#5B233F" rx="94.3684" ry="21.2737" style="stroke:#F8FAFC;stroke-width:0.5;"/><text fill="#F8FAFC" font-family="DejaVu Sans" font-size="14" lengthAdjust="spacing" textLength="163.5635" x="367.4266" y="206.6521">player_inventory_items</text></g><!--entity DB_RT--><g class="entity" data-qualified-name="Persistence.DB_RT" data-source-line="33" id="ent0011"><ellipse cx="449.2114" cy="125.9983" fill="#5B233F" rx="85.0414" ry="19.4083" style="stroke:#F8FAFC;stroke-width:0.5;"/><text fill="#F8FAFC" font-family="DejaVu Sans" font-size="14" lengthAdjust="spacing" textLength="142.4199" x="378.0014" y="130.6467">reward_transactions</text></g><!--entity DB_P--><g class="entity" data-qualified-name="Persistence.DB_P" data-source-line="34" id="ent0012"><ellipse cx="449.2072" cy="273.0036" fill="#5B233F" rx="39.2772" ry="14.5236" style="stroke:#F8FAFC;stroke-width:0.5;"/><text fill="#F8FAFC" font-family="DejaVu Sans" font-size="14" lengthAdjust="spacing" textLength="51.3037" x="423.5553" y="277.6521">players</text></g><!--entity DB_C--><g class="entity" data-qualified-name="Persistence.DB_C" data-source-line="35" id="ent0013"><ellipse cx="449.2106" cy="57.0036" fill="#5B233F" rx="38.4506" ry="14.5236" style="stroke:#F8FAFC;stroke-width:0.5;"/><text fill="#F8FAFC" font-family="DejaVu Sans" font-size="14" lengthAdjust="spacing" textLength="50.1348" x="424.1432" y="61.6521">configs</text></g><!--entity player--><g class="entity" data-qualified-name="player" data-source-line="23" id="ent0002"><ellipse cx="27.7827" cy="159.35" fill="#F1F1F1" rx="8" ry="8" style="stroke:#93C5FD;stroke-width:0.5;"/><path d="M27.7827,167.35 L27.7827,194.35 M14.7827,175.35 L40.7827,175.35 M27.7827,194.35 L14.7827,209.35 M27.7827,194.35 L40.7827,209.35" fill="none" style="stroke:#93C5FD;stroke-width:0.5;"/><text fill="#DBEAFE" font-family="DejaVu Sans" font-size="14" lengthAdjust="spacing" textLength="43.5654" x="6" y="223.8451">Player</text></g><!--link player to UC_GetInv--><g class="link" data-entity-1="ent0002" data-entity-2="ent0004" data-link-type="dependency" data-source-line="37" id="lnk14"><path d="M49.97,203 C60.37,209.44 73.29,216.78 85.57,222 C107.18,231.19 126.3226,237.1719 147.5026,242.6719" fill="none" id="player-to-UC_GetInv" style="stroke:#CBD5E1;stroke-width:1;"/><polygon fill="#CBD5E1" points="153.31,244.18,145.6043,238.0463,148.4705,242.9233,143.5935,245.7895,153.31,244.18" style="stroke:#CBD5E1;stroke-width:1;"/></g><!--link player to UC_UpgradeHero--><g class="link" data-entity-1="ent0002" data-entity-2="ent0005" data-link-type="dependency" data-source-line="38" id="lnk15"><path d="M49.92,189 C71.15,189 98.95,189 129.22,189" fill="none" id="player-to-UC_UpgradeHero" style="stroke:#CBD5E1;stroke-width:1;"/><polygon fill="#CBD5E1" points="135.22,189,126.22,185,130.22,189,126.22,193,135.22,189" style="stroke:#CBD5E1;stroke-width:1;"/></g><!--link player to UC_EvolveHero--><g class="link" data-entity-1="ent0002" data-entity-2="ent0006" data-link-type="dependency" data-source-line="39" id="lnk16"><path d="M42.36,227.33 C51.56,248.09 65.69,272.57 85.57,288 C102.76,301.35 119.3317,307.8339 139.8517,312.3739" fill="none" id="player-to-UC_EvolveHero" style="stroke:#CBD5E1;stroke-width:1;"/><polygon fill="#CBD5E1" points="145.71,313.67,137.7866,307.8202,140.8281,312.5899,136.0584,315.6313,145.71,313.67" style="stroke:#CBD5E1;stroke-width:1;"/></g><!--link player to UC_BuySkill--><g class="link" data-entity-1="ent0002" data-entity-2="ent0007" data-link-type="dependency" data-source-line="40" id="lnk17"><path d="M49.97,175 C60.37,168.56 73.29,161.22 85.57,156 C107.08,146.85 126.0937,140.9021 147.2137,135.4021" fill="none" id="player-to-UC_BuySkill" style="stroke:#CBD5E1;stroke-width:1;"/><polygon fill="#CBD5E1" points="153.02,133.89,143.3024,132.2872,148.1814,135.1501,145.3185,140.029,153.02,133.89" style="stroke:#CBD5E1;stroke-width:1;"/></g><!--link player to UC_UpgradeSkill--><g class="link" data-entity-1="ent0002" data-entity-2="ent0008" data-link-type="dependency" data-source-line="41" id="lnk18"><path d="M42.41,150.73 C51.62,129.99 65.75,105.51 85.57,90 C102.34,76.88 118.2612,70.3514 138.3812,65.5914" fill="none" id="player-to-UC_UpgradeSkill" style="stroke:#CBD5E1;stroke-width:1;"/><polygon fill="#CBD5E1" points="144.22,64.21,134.5409,62.3895,139.3543,65.3611,136.3827,70.1746,144.22,64.21" style="stroke:#CBD5E1;stroke-width:1;"/></g><!--link UC_GetInv to DB_PII--><g class="link" data-entity-1="ent0004" data-entity-2="ent0010" data-link-type="dependency" data-source-line="42" id="lnk19"><path d="M252.19,244.4 C288.78,236.49 333.3858,226.8394 373.9458,218.0594" fill="none" id="UC_GetInv-to-DB_PII" style="stroke:#CBD5E1;stroke-width:1;"/><polygon fill="#CBD5E1" points="379.81,216.79,370.1675,214.7847,374.9232,217.8478,371.86,222.6036,379.81,216.79" style="stroke:#CBD5E1;stroke-width:1;"/></g><!--link UC_UpgradeHero to DB_PII--><g class="link" data-entity-1="ent0005" data-entity-2="ent0010" data-link-type="dependency" data-source-line="43" id="lnk20"><path d="M267.57,192.42 C294.94,193.87 321.3484,195.2718 351.0984,196.8518" fill="none" id="UC_UpgradeHero-to-DB_PII" style="stroke:#CBD5E1;stroke-width:1;"/><polygon fill="#CBD5E1" points="357.09,197.17,348.3148,192.6983,352.097,196.9048,347.8905,200.6871,357.09,197.17" style="stroke:#CBD5E1;stroke-width:1;"/></g><!--link UC_EvolveHero to DB_PII--><g class="link" data-entity-1="ent0006" data-entity-2="ent0010" data-link-type="dependency" data-source-line="44" id="lnk21"><path d="M261.65,315.79 C282.17,311.49 303.82,303.32 318.84,288 C333.93,272.6 316.14,256.77 330.84,241 C342.11,228.9 351.591,222.6271 367.201,216.8671" fill="none" id="UC_EvolveHero-to-DB_PII" style="stroke:#CBD5E1;stroke-width:1;"/><polygon fill="#CBD5E1" points="372.83,214.79,363.0018,214.1529,368.1392,216.5209,365.7712,221.6583,372.83,214.79" style="stroke:#CBD5E1;stroke-width:1;"/></g><!--link UC_BuySkill to DB_PII--><g class="link" data-entity-1="ent0007" data-entity-2="ent0010" data-link-type="dependency" data-source-line="45" id="lnk22"><path d="M251.39,133.87 C272.51,139.37 297.33,146.83 318.84,156 C324.52,158.42 325.21,160.46 330.84,163 C349.52,171.44 364.8908,177.1748 383.9808,183.3448" fill="none" id="UC_BuySkill-to-DB_PII" style="stroke:#CBD5E1;stroke-width:1;"/><polygon fill="#CBD5E1" points="389.69,185.19,382.3564,178.616,384.9323,183.6523,379.896,186.2283,389.69,185.19" style="stroke:#CBD5E1;stroke-width:1;"/></g><!--link UC_UpgradeSkill to DB_PII--><g class="link" data-entity-1="ent0008" data-entity-2="ent0010" data-link-type="dependency" data-source-line="46" id="lnk23"><path d="M264.52,61.53 C284.47,66.05 305.02,74.49 318.84,90 C340.71,114.55 309.49,137.99 330.84,163 C341.43,175.41 350.4656,181.7736 365.8256,187.5636" fill="none" id="UC_UpgradeSkill-to-DB_PII" style="stroke:#CBD5E1;stroke-width:1;"/><polygon fill="#CBD5E1" points="371.44,189.68,364.4294,182.7626,366.7614,187.9164,361.6076,190.2484,371.44,189.68" style="stroke:#CBD5E1;stroke-width:1;"/></g><!--link UC_UpgradeHero to DB_RT--><g class="link" data-entity-1="ent0005" data-entity-2="ent0011" data-link-type="dependency" data-source-line="47" id="lnk24"><path d="M248.71,177.3 C288.98,166.94 342.1092,153.2849 385.4892,142.1249" fill="none" id="UC_UpgradeHero-to-DB_RT" style="stroke:#CBD5E1;stroke-width:1;"/><polygon fill="#CBD5E1" points="391.3,140.63,381.5872,138.9985,386.4577,141.8757,383.5804,146.7462,391.3,140.63" style="stroke:#CBD5E1;stroke-width:1;"/></g><!--link UC_EvolveHero to DB_RT--><g class="link" data-entity-1="ent0006" data-entity-2="ent0011" data-link-type="dependency" data-source-line="48" id="lnk25"><path d="M262.96,316.98 C283.63,312.82 305.04,304.43 318.84,288 C336.78,266.63 313.28,184.69 330.84,163 C341.73,149.55 351.7931,142.8229 368.2331,137.2929" fill="none" id="UC_EvolveHero-to-DB_RT" style="stroke:#CBD5E1;stroke-width:1;"/><polygon fill="#CBD5E1" points="373.92,135.38,364.1144,134.4581,369.1809,136.9741,366.6649,142.0406,373.92,135.38" style="stroke:#CBD5E1;stroke-width:1;"/></g><!--link UC_BuySkill to DB_RT--><g class="link" data-entity-1="ent0007" data-entity-2="ent0011" data-link-type="dependency" data-source-line="49" id="lnk26"><path d="M268.86,123.8 C298.06,124.16 326.7904,124.5167 357.8804,124.8967" fill="none" id="UC_BuySkill-to-DB_RT" style="stroke:#CBD5E1;stroke-width:1;"/><polygon fill="#CBD5E1" points="363.88,124.97,354.9296,120.8603,358.8804,124.9089,354.8318,128.8597,363.88,124.97" style="stroke:#CBD5E1;stroke-width:1;"/></g><!--link UC_UpgradeSkill to DB_RT--><g class="link" data-entity-1="ent0008" data-entity-2="ent0011" data-link-type="dependency" data-source-line="50" id="lnk27"><path d="M245.32,68.86 C286.5,80.46 343.6047,96.5433 388.4447,109.1733" fill="none" id="UC_UpgradeSkill-to-DB_RT" style="stroke:#CBD5E1;stroke-width:1;"/><polygon fill="#CBD5E1" points="394.22,110.8,386.6416,104.5097,389.4073,109.4444,384.4726,112.2101,394.22,110.8" style="stroke:#CBD5E1;stroke-width:1;"/></g><!--link UC_UpgradeHero to DB_P--><g class="link" data-entity-1="ent0005" data-entity-2="ent0012" data-link-type="dependency" data-source-line="51" id="lnk28"><path d="M260.78,196.82 C280.61,201.64 302.04,209.42 318.84,222 C326.83,227.99 322.81,235.06 330.84,241 C354.02,258.14 379.9164,265.2097 404.5764,268.9097" fill="none" id="UC_UpgradeHero-to-DB_P" style="stroke:#CBD5E1;stroke-width:1;"/><polygon fill="#CBD5E1" points="410.51,269.8,402.2031,264.5089,405.5653,269.0581,401.0161,272.4203,410.51,269.8" style="stroke:#CBD5E1;stroke-width:1;"/></g><!--link UC_EvolveHero to DB_P--><g class="link" data-entity-1="ent0006" data-entity-2="ent0012" data-link-type="dependency" data-source-line="52" id="lnk29"><path d="M251.31,310.77 C299.11,301.6 365.3376,288.901 407.7476,280.761" fill="none" id="UC_EvolveHero-to-DB_P" style="stroke:#CBD5E1;stroke-width:1;"/><polygon fill="#CBD5E1" points="413.64,279.63,404.0474,277.3982,408.7296,280.5725,405.5553,285.2548,413.64,279.63" style="stroke:#CBD5E1;stroke-width:1;"/></g><!--link UC_BuySkill to DB_C--><g class="link" data-entity-1="ent0007" data-entity-2="ent0013" data-link-type="dependency" data-source-line="53" id="lnk30"><path d="M247.29,111.12 C296.33,97.91 368.5168,78.4716 411.4768,66.8916" fill="none" id="UC_BuySkill-to-DB_C" style="stroke:#CBD5E1;stroke-width:1;"/><polygon fill="#CBD5E1" points="417.27,65.33,407.5391,63.8102,412.4423,66.6313,409.6212,71.5345,417.27,65.33" style="stroke:#CBD5E1;stroke-width:1;"/></g><!--link UC_UpgradeSkill to DB_C--><g class="link" data-entity-1="ent0008" data-entity-2="ent0013" data-link-type="dependency" data-source-line="54" id="lnk31"><path d="M267.25,57 C312.77,57 366.34,57 404.45,57" fill="none" id="UC_UpgradeSkill-to-DB_C" style="stroke:#CBD5E1;stroke-width:1;"/><polygon fill="#CBD5E1" points="410.45,57,401.45,53,405.45,57,401.45,61,410.45,57" style="stroke:#CBD5E1;stroke-width:1;"/></g><?plantuml-src VLFDZjem4BxdAKPmNfKaKDXBfPBTRZcqGijkhz4a7eSinaQE0q8Lxzv0Gh3Ji3Vd-vlnZ2E86p0AT9wj3R1SKsfo9JslsEHoXngta62woRGg9OkKK1g6eyGFWf6bADR8r26N6N0K1LaC8uwbC3-KDBznI_147_YdX1NAeb_LbA09JIcn9D-rLeU6J1Cs8TyYTrM7cD7A70N1-GOeCs6tqMBmrmEOAyr8Ds5VnzFnBAbGktf0CpxoJbO2fgPY_dC_Xkc4CzVD4a9EZhiiACMYfpgVSUIfws-nUNVmFWyUmscLxDNjB0KUIGCMiBkSlDiz1mkv9rc9Zl05NZ1T8_nIh1GqWE4OWsJ4ByrS6nkya87MCZX7laTn1LOO3ASu3lt0bh_lCesCu2TfTLKts1dgipplbTYxZXgwPrYMkcgxEgqskH1NpxmyNhu_wyenDA1hEjcZMf8kyiAGJC_J2RdF0dAdKuytpgy3YdD3s-9IuMaUBnSB64wI80ovRT9qGCrYewl7ZfU_gdMyllKPwYgts3vDgYJFirOJjPgJLzlXuU7RRNSTq5fHXxcjeaDSvzsVL5Etft9cwubudHVXCjRcNQ9TRs_I9vITzVhMNwF6koLgjA-2mpZDthb3NtnqBptw1m00?></g></svg>